<?xml version="1.0" encoding="UTF-8" standalone="no"?>
<svg width="998px" height="1040px" viewBox="0 0 998 1040" version="1.1" xmlns="http://www.w3.org/2000/svg" xmlns:xlink="http://www.w3.org/1999/xlink" xmlns:sketch="http://www.bohemiancoding.com/sketch/ns">
    <!-- Generator: Sketch 3.5.1 (25234) - http://www.bohemiancoding.com/sketch -->
    <title>Desktop HD</title>
    <desc>Created with Sketch.</desc>
    <defs>
        <radialGradient cx="50%" cy="50%" fx="50%" fy="50%" r="48.5495351%" id="radialGradient-1">
            <stop stop-color="#8E8E8E" offset="0%"></stop>
            <stop stop-color="#4F4F4F" offset="100%"></stop>
        </radialGradient>
    </defs>
    <g id="Page-1" stroke="none" stroke-width="1" fill="none" fill-rule="evenodd" sketch:type="MSPage">
        <g id="Desktop-HD" sketch:type="MSArtboardGroup">
            <g id="Vader" sketch:type="MSLayerGroup" transform="translate(155.000000, 148.000000)">
                <circle id="Oval-1" fill="url(#radialGradient-1)" sketch:type="MSShapeGroup" cx="102" cy="109" r="100"></circle>
                <rect id="Rectangle-1" opacity="0.64453125" fill="#EBEBEB" sketch:type="MSShapeGroup" x="87" y="105" width="30" height="111"></rect>
                <rect id="Rectangle-2" fill="#000000" sketch:type="MSShapeGroup" x="84" y="178" width="36" height="38"></rect>
                <rect id="Rectangle-13" fill="#D0D0D0" sketch:type="MSShapeGroup" x="78" y="187" width="6" height="20"></rect>
                <ellipse id="Oval-5" fill="#FFFFFF" sketch:type="MSShapeGroup" cx="76" cy="192" rx="1" ry="3"></ellipse>
                <ellipse id="Oval-5-Copy" fill="#FFFFFF" sketch:type="MSShapeGroup" cx="76" cy="202" rx="1" ry="3"></ellipse>
                <rect id="Rectangle-14" fill="#000000" sketch:type="MSShapeGroup" x="76" y="187" width="2" height="15"></rect>
                <circle id="Oval-2" stroke="#C2C2C2" stroke-width="13" sketch:type="MSShapeGroup" cx="102.5" cy="109.5" r="102.5"></circle>
                <path d="M91,1.1000061 C91,0.999999885 98.5,0.499999958 103,0.5 C107.5,0.500000042 116,1.19999695 116,1.19999695 L116,101 L91,101 C91,101 91,2.00000015 91,1.1000061 Z" id="Rectangle-6" fill="#E63F3F" sketch:type="MSShapeGroup"></path>
                <path d="M84,103.5 L124,82 L124,154 L117.5,154 L110.111111,141.5 L84,141.5 L84,103.5 Z" id="Rectangle-2-Copy" fill="#000000" sketch:type="MSShapeGroup"></path>
                <path d="M82,122 L124,122 L124,154 L117.175,154 L109.416667,141.5 L82,141.5 L82,122 Z" id="Rectangle-2-Copy-2" fill="#000000" sketch:type="MSShapeGroup"></path>
                <rect id="Rectangle-4" fill="#D8D8D8" sketch:type="MSShapeGroup" x="124" y="136" width="4" height="9"></rect>
            </g>
            <g id="Obi-Wan" sketch:type="MSLayerGroup" transform="translate(395.000000, 148.000000)">
                <circle id="Oval-1" fill="url(#radialGradient-1)" sketch:type="MSShapeGroup" cx="102" cy="109" r="100"></circle>
                <rect id="Rectangle-1" fill="#000000" sketch:type="MSShapeGroup" x="87" y="146" width="30" height="54"></rect>
                <rect id="Rectangle-20" fill="#A39B3D" sketch:type="MSShapeGroup" x="96" y="130" width="12" height="16"></rect>
                <rect id="Rectangle-20-Copy-6" fill="#A39B3D" sketch:type="MSShapeGroup" x="93" y="130" width="18" height="8"></rect>
                <rect id="Rectangle-20-Copy-2" fill="#D0D0D0" sketch:type="MSShapeGroup" x="95" y="117" width="15" height="10"></rect>
                <rect id="Rectangle-20-Copy-3" fill="#D0D0D0" sketch:type="MSShapeGroup" x="92" y="109" width="21" height="10"></rect>
                <rect id="Rectangle-20-Copy" fill="#A39B3D" sketch:type="MSShapeGroup" x="90" y="122" width="24" height="8"></rect>
                <rect id="Rectangle-2" fill="#ECECEC" sketch:type="MSShapeGroup" x="84" y="190" width="36" height="19"></rect>
                <circle id="Oval-2" stroke="#C2C2C2" stroke-width="13" sketch:type="MSShapeGroup" cx="102.5" cy="109.5" r="102.5"></circle>
                <path d="M89,1.1000061 C89,0.999999885 96.5,0.499999958 101,0.5 C105.5,0.500000042 114,1.19999695 114,1.19999695 L114,101 L89,101 C89,101 89,2.00000015 89,1.1000061 Z" id="Rectangle-6" fill="#3FC8E6" sketch:type="MSShapeGroup"></path>
                <rect id="Rectangle-20-Copy-4" fill="#D0D0D0" sketch:type="MSShapeGroup" x="87" y="102" width="30" height="12"></rect>
                <rect id="Rectangle-20-Copy-5" fill="#D0D0D0" sketch:type="MSShapeGroup" x="82" y="98" width="40" height="5"></rect>
            </g>
            <g id="Luke-Sky" sketch:type="MSLayerGroup" transform="translate(635.000000, 149.000000)">
                <circle id="Oval-1-Copy-2" fill="url(#radialGradient-1)" sketch:type="MSShapeGroup" cx="102" cy="109" r="100"></circle>
                <path d="M84,183 C86.7614237,183 87,180.761424 87,178 C87,175.238576 86.7614237,173 84,173 C81.2385763,173 81.5,175.238576 81.5,178 C81.5,180.761424 81.2385763,183 84,183 Z" id="Oval-29" fill="#E63F3F" sketch:type="MSShapeGroup"></path>
                <rect id="Rectangle-46" fill="#CECECE" sketch:type="MSShapeGroup" x="85" y="146" width="35" height="63"></rect>
                <rect id="Rectangle-57" fill="#000000" sketch:type="MSShapeGroup" x="85" y="192" width="35" height="2"></rect>
                <rect id="Rectangle-57-Copy-2" fill="#000000" sketch:type="MSShapeGroup" x="85" y="197" width="35" height="2"></rect>
                <rect id="Rectangle-57-Copy-3" fill="#000000" sketch:type="MSShapeGroup" x="85" y="187" width="35" height="2"></rect>
                <rect id="Rectangle-57-Copy-4" fill="#000000" sketch:type="MSShapeGroup" x="85" y="177" width="35" height="2"></rect>
                <rect id="Rectangle-57-Copy-5" fill="#000000" sketch:type="MSShapeGroup" x="85" y="167" width="35" height="2"></rect>
                <rect id="Rectangle-57-Copy-6" fill="#000000" sketch:type="MSShapeGroup" x="85" y="146" width="35" height="13"></rect>
                <rect id="Rectangle-57-Copy-7" fill="#000000" sketch:type="MSShapeGroup" x="85" y="162" width="35" height="2"></rect>
                <rect id="Rectangle-57-Copy-8" fill="#000000" sketch:type="MSShapeGroup" x="85" y="172" width="35" height="2"></rect>
                <rect id="Rectangle-57-Copy-9" fill="#000000" sketch:type="MSShapeGroup" x="85" y="182" width="35" height="2"></rect>
                <path d="M95,122 L110,122 L110,128.333333 L120.5,141 L85,141 L95,128.333333 L95,122 Z" id="Rectangle-20-Copy-13" fill="#A39B3D" sketch:type="MSShapeGroup"></path>
                <rect id="Rectangle-20-Copy-11" fill="#A39B3D" sketch:type="MSShapeGroup" x="85" y="141" width="35" height="5"></rect>
                <circle id="Oval-2" stroke="#C2C2C2" stroke-width="13" sketch:type="MSShapeGroup" cx="102.5" cy="109.5" r="102.5"></circle>
                <path d="M90,1.12090184 C90,1.01741282 97.5,0.499999956 102,0.5 C106.5,0.500000044 115,1.22437495 115,1.22437495 L115,104.5 L90,104.5 C90,104.5 90,2.05223896 90,1.12090184 Z" id="Rectangle-6" fill="#50C919" sketch:type="MSShapeGroup"></path>
                <rect id="Rectangle-20-Copy-10" fill="#D0D0D0" sketch:type="MSShapeGroup" x="95" y="119" width="15" height="5"></rect>
                <rect id="Rectangle-20-Copy-9" fill="#D0D0D0" sketch:type="MSShapeGroup" x="92" y="110" width="21" height="10"></rect>
                <rect id="Rectangle-20-Copy-8" fill="#D0D0D0" sketch:type="MSShapeGroup" x="87" y="104" width="30" height="12"></rect>
                <rect id="Rectangle-20-Copy-7" fill="#D0D0D0" sketch:type="MSShapeGroup" x="82" y="104" width="40" height="5"></rect>
            </g>
            <g id="Palpatine" sketch:type="MSLayerGroup" transform="translate(155.000000, 407.000000)">
                <ellipse id="Oval-1-Copy" fill="url(#radialGradient-1)" sketch:type="MSShapeGroup" cx="102" cy="109" rx="100" ry="100"></ellipse>
                <rect id="Rectangle-36" fill="#A1924B" sketch:type="MSShapeGroup" x="88" y="141" width="28.5204445" height="75.2761905"></rect>
                <path d="M113.196139,215.857143 C116.96278,215.857143 115.676178,197.963731 115.676178,177.72381 C115.676178,157.483888 115.676178,149 114.436158,149 C113.196139,149 103.704311,170.85714 104,182.42857 C104.295689,194 109.429498,215.857143 113.196139,215.857143 Z" id="Oval-21" fill="#DBD2A9" sketch:type="MSShapeGroup"></path>
                <path d="M88.4580644,216.568253 C88.4580644,216.568253 87.4274192,168.03492 88.4580649,167.044444 C88.9616232,166.560512 90.731279,176.776539 93.5,185.500001 C96.3980908,194.63107 100.309304,202.34977 101.268895,204.682539 C108.399006,222.015872 88.4580644,216.568253 88.4580644,216.568253 Z" id="Oval-21-Copy" fill="#DBD2A9" sketch:type="MSShapeGroup"></path>
                <path d="M88,159.5 C88.0000001,162.078012 92.5000001,159.5 91.9999998,155 C91.4999994,150.5 87.1871931,149.578013 88,152 C88.8128069,154.421987 88.6871931,154.421987 88.6871931,156 C88.6871931,157.578013 87.9999999,156.921987 88,159.5 Z" id="Oval-23" fill="#BCBCBC" sketch:type="MSShapeGroup"></path>
                <rect id="Rectangle-37" fill="#C6B871" sketch:type="MSShapeGroup" x="86" y="136" width="32" height="6" rx="1"></rect>
                <rect id="Rectangle-37-Copy" fill="#C6B871" sketch:type="MSShapeGroup" x="88" y="133" width="28" height="3" rx="1"></rect>
                <rect id="Rectangle-37-Copy-2" fill="#C6B871" sketch:type="MSShapeGroup" x="88" y="130" width="28" height="3" rx="1"></rect>
                <rect id="Rectangle-37-Copy-3" fill="#C6B871" sketch:type="MSShapeGroup" x="88" y="127" width="28" height="3" rx="1"></rect>
                <rect id="Rectangle-37-Copy-4" fill="#C6B871" sketch:type="MSShapeGroup" x="88" y="124" width="28" height="3" rx="1"></rect>
                <path d="M90.062306,111.604761 L115.08024,111.604761 L125.699951,124 L79.6999512,124 L90.062306,111.604761 Z" id="Rectangle-37-Copy-5" fill="#A1924B" sketch:type="MSShapeGroup"></path>
                <rect id="Rectangle-43" fill="#C6B871" sketch:type="MSShapeGroup" x="93" y="107" width="18" height="5"></rect>
                <ellipse id="Oval-2" stroke="#C2C2C2" stroke-width="13" sketch:type="MSShapeGroup" cx="102.5" cy="109.5" rx="102.5" ry="102.5"></ellipse>
                <path d="M90,1.12090184 C90,1.01741282 97.5,0.499999956 102,0.5 C106.5,0.500000044 115,1.22437495 115,1.22437495 L115,104.5 L90,104.5 C90,104.5 90,2.05223896 90,1.12090184 Z" id="Rectangle-6" fill="#DE2727" sketch:type="MSShapeGroup"></path>
                <rect id="Rectangle-37-Copy-6" fill="#C6B871" sketch:type="MSShapeGroup" x="86" y="104" width="32" height="3" rx="1"></rect>
                <path d="M87.5765961,159.153192 C89.5518956,159.153192 90.5,157.551896 90.5,155.576596 C90.5,153.601297 89.5518956,152 87.5765961,152 C85.6012966,152 85,153.601297 85,155.576596 C85,157.551896 85.6012966,159.153192 87.5765961,159.153192 Z" id="Oval-24" fill="#000000" sketch:type="MSShapeGroup"></path>
            </g>
            <g id="Luke-Sky" sketch:type="MSLayerGroup" transform="translate(395.000000, 406.000000)">
                <ellipse id="Oval-1" fill="url(#radialGradient-1)" sketch:type="MSShapeGroup" cx="102" cy="109" rx="100" ry="100"></ellipse>
                <rect id="Rectangle-33" fill="#000000" sketch:type="MSShapeGroup" x="115" y="144" width="5" height="10"></rect>
                <ellipse id="Oval-15" fill="#000000" sketch:type="MSShapeGroup" cx="120" cy="149" rx="2" ry="5"></ellipse>
                <path d="M90.5,142 L90.5,127 C90.5,127 83,127 83,134.5 C83,142 90.5,142 90.5,142 Z" id="Oval-17" fill="#F5F5F5" sketch:type="MSShapeGroup"></path>
                <rect id="Rectangle-34" fill="#BBBBBB" sketch:type="MSShapeGroup" x="106" y="105" width="20" height="10"></rect>
                <ellipse id="Oval-16" fill="#BBBBBB" sketch:type="MSShapeGroup" cx="126" cy="110" rx="5" ry="5"></ellipse>
                <rect id="Rectangle-1-Copy" fill="#CBCBCB" sketch:type="MSShapeGroup" x="87" y="109" width="30" height="104"></rect>
                <rect id="Rectangle-2-Copy-6" fill="#878787" sketch:type="MSShapeGroup" x="84" y="170" width="36" height="44"></rect>
                <rect id="Rectangle-13-Copy-2" fill="#D0D0D0" sketch:type="MSShapeGroup" x="120" y="184" width="6" height="20"></rect>
                <ellipse id="Oval-5-Copy-5" fill="#FFFFFF" sketch:type="MSShapeGroup" cx="127" cy="188" rx="1" ry="3"></ellipse>
                <ellipse id="Oval-5-Copy-4" fill="#FFFFFF" sketch:type="MSShapeGroup" cx="127" cy="198" rx="1" ry="3"></ellipse>
                <rect id="Rectangle-14-Copy-2" fill="#000000" sketch:type="MSShapeGroup" x="125" y="184" width="2" height="19"></rect>
                <ellipse id="Oval-2" stroke="#C2C2C2" stroke-width="13" sketch:type="MSShapeGroup" cx="102.5" cy="109.5" rx="102.5" ry="102.5"></ellipse>
                <path d="M89,1.12090184 C89,1.01741282 96.5,0.499999956 101,0.5 C105.5,0.500000044 114,1.22437495 114,1.22437495 L114,104.5 L89,104.5 C89,104.5 89,2.05223896 89,1.12090184 Z" id="Rectangle-6" fill="#3FB0E6" sketch:type="MSShapeGroup"></path>
                <path d="M87,89 L117,89 L117,121 L112.125,121 L106.5,105 L87,105 L87,89 Z" id="Rectangle-2-Copy-4" fill="#CACACA" sketch:type="MSShapeGroup" transform="translate(102.000000, 105.000000) scale(1, -1) translate(-102.000000, -105.000000) "></path>
                <path d="M96,122 C98.7614237,122 99,119.761424 99,117 C99,114.238576 98.7614237,112 96,112 C93.2385763,112 91,114.238576 91,117 C91,119.761424 93.2385763,122 96,122 Z" id="Oval-18" fill="#A39B3E" sketch:type="MSShapeGroup"></path>
            </g>
            <g id="Quigon-Jin" sketch:type="MSLayerGroup" transform="translate(635.000000, 406.000000)">
                <ellipse id="Oval-1-Copy-2" fill="url(#radialGradient-1)" sketch:type="MSShapeGroup" cx="102" cy="109" rx="100" ry="100"></ellipse>
                <path d="M84,183 C86.7614237,183 87,180.761424 87,178 C87,175.238576 86.7614237,173 84,173 C81.2385763,173 81.5,175.238576 81.5,178 C81.5,180.761424 81.2385763,183 84,183 Z" id="Oval-29" fill="#E63F3F" sketch:type="MSShapeGroup"></path>
                <rect id="Rectangle-84" fill="#2C2C2C" sketch:type="MSShapeGroup" x="85" y="146" width="35" height="69"></rect>
                <path d="M81.5,124.992687 C81.5,124.444441 81.9216718,123.828165 82.4317489,123.620304 L87.6348315,121.5 L117.837079,121.5 L122.590154,123.598332 C123.092648,123.820167 123.5,124.449169 123.5,124.992687 L123.5,136.507313 C123.5,137.055559 123.214476,137.83811 122.857049,138.261366 L115.477528,147 L89.5224719,147 L82.1429513,138.261366 C81.7878591,137.840875 81.5,137.050831 81.5,136.507313 L81.5,124.992687 Z" id="Rectangle-85" fill="#2D2D2D" sketch:type="MSShapeGroup"></path>
                <path d="M120,206.5 L120,157 C120,154 108.973512,160.960753 104,167.5 C99.026488,174.039248 94.5390045,186.223536 93,192.5 C90.816187,201.406162 88,206.5 88,206.5 L120,206.5 Z" id="Oval-32" fill="#EBDC93" sketch:type="MSShapeGroup"></path>
                <ellipse id="Oval-2" stroke="#C2C2C2" stroke-width="13" sketch:type="MSShapeGroup" cx="102.5" cy="109.5" rx="102.5" ry="102.5"></ellipse>
                <path d="M90,1.12090184 C90,1.01741282 97.5,0.499999956 102,0.5 C106.5,0.500000044 115,1.22437495 115,1.22437495 L115,104.5 L90,104.5 C90,104.5 90,2.05223896 90,1.12090184 Z" id="Rectangle-6" fill="#50C91A" sketch:type="MSShapeGroup"></path>
                <path d="M88,118 L88,105 L118,105 L118,118 L117,122 L89,122 L88,118 Z" id="Rectangle-86" fill="#2D2D2D" sketch:type="MSShapeGroup"></path>
                <path d="M85,107 C85,105.895431 85.8871117,104.946236 86.9902855,104.879377 L101.5,104 L118.002599,104.892032 C119.105733,104.951661 120,105.88773 120,107 L120,107 C120,108.104569 119.107707,108.951768 118.002599,108.892032 L101.5,108 L86.9902855,108.879377 C85.8910812,108.945995 85,108.11227 85,107 L85,107 Z" id="Rectangle-87" fill="#EBDC93" sketch:type="MSShapeGroup"></path>
            </g>
            <g id="Kylo-Ren" sketch:type="MSLayerGroup" transform="translate(155.000000, 670.000000)">
                <ellipse id="Oval-1-Copy-2" fill="url(#radialGradient-1)" sketch:type="MSShapeGroup" cx="102" cy="109" rx="100" ry="100"></ellipse>
                <rect id="Rectangle-46" fill="#373737" sketch:type="MSShapeGroup" x="88.5" y="179" width="28" height="37"></rect>
                <ellipse id="Oval-2" stroke="#C2C2C2" stroke-width="13" sketch:type="MSShapeGroup" cx="102.5" cy="109.5" rx="102.5" ry="102.5"></ellipse>
                <path d="M90,1.12090184 C90,1.01741282 97.5,0.499999956 102,0.5 C106.5,0.500000044 115,1.22437495 115,1.22437495 L115,104.5 L90,104.5 C90,104.5 90,2.05223896 90,1.12090184 Z" id="Rectangle-6" fill="#DE2727" sketch:type="MSShapeGroup"></path>
                <rect id="Rectangle-54" fill="#373737" sketch:type="MSShapeGroup" x="89.5" y="104" width="26" height="10"></rect>
                <rect id="Rectangle-46-Copy" fill="#282828" sketch:type="MSShapeGroup" x="85.5" y="113" width="34" height="66"></rect>
                <path d="M84.074994,133.602579 C82.2131102,129.836189 81.5,115.5 81.5,115.5 L85.4100512,114.5 L85.4100511,134.5 C85.4100511,134.5 84.3565561,134.172149 84.074994,133.602579 Z" id="Rectangle-48" fill="#282828" sketch:type="MSShapeGroup"></path>
                <path d="M122.074994,133.602579 C120.21311,129.836189 119.5,115.5 119.5,115.5 L123.410051,114.5 L123.410051,134.5 C123.410051,134.5 122.356556,134.172149 122.074994,133.602579 Z" id="Rectangle-48-Copy-2" fill="#282828" sketch:type="MSShapeGroup" transform="translate(121.455026, 124.500000) scale(-1, 1) translate(-121.455026, -124.500000) "></path>
                <path d="M17,124.5 C17,119.5 27.5,117 29,117 L61,117 L61,133 L29,133 C28,133 17,129.5 17,124.5 Z" id="Rectangle-52" fill="#E63F3F" sketch:type="MSShapeGroup"></path>
                <path d="M144,124.5 C144,119.5 154.5,117 156,117 L188,117 L188,133 L156,133 C155,133 144,129.5 144,124.5 Z" id="Rectangle-52-Copy" fill="#E63F3F" sketch:type="MSShapeGroup" transform="translate(166.000000, 125.000000) scale(-1, 1) translate(-166.000000, -125.000000) "></path>
                <path d="M57,126 C58.2342842,123.796022 59.5,122.5 59.5,122.5 L60.5,116 L82,116 L84.5,134 L54.5,134 C54.5,134 55.3077493,129.021739 57,126 Z" id="Rectangle-50" fill="#3A3930" sketch:type="MSShapeGroup"></path>
                <path d="M123,126 C124.234284,123.796022 125.5,122.5 125.5,122.5 L126.5,116 L148,116 L150.5,134 L120.5,134 C120.5,134 121.307749,129.021739 123,126 Z" id="Rectangle-50-Copy" fill="#3A3930" sketch:type="MSShapeGroup" transform="translate(135.500000, 125.000000) scale(-1, 1) translate(-135.500000, -125.000000) "></path>
            </g>
            <g id="Mace-Windu" sketch:type="MSLayerGroup" transform="translate(395.000000, 671.000000)">
                <ellipse id="Oval-1-Copy-2" fill="url(#radialGradient-1)" sketch:type="MSShapeGroup" cx="102" cy="109" rx="100" ry="100"></ellipse>
                <path d="M84,183 C86.7614237,183 87,180.761424 87,178 C87,175.238576 86.7614237,173 84,173 C81.2385763,173 81.5,175.238576 81.5,178 C81.5,180.761424 81.2385763,183 84,183 Z" id="Oval-29" fill="#E63F3F" sketch:type="MSShapeGroup"></path>
                <rect id="Rectangle-46" fill="#CECECE" sketch:type="MSShapeGroup" x="85" y="158" width="35" height="50"></rect>
                <rect id="Rectangle-57-Copy-10" fill="#000000" sketch:type="MSShapeGroup" x="84" y="165" width="37" height="2" rx="1"></rect>
                <rect id="Rectangle-57-Copy-11" fill="#000000" sketch:type="MSShapeGroup" x="84" y="171" width="37" height="2" rx="1"></rect>
                <rect id="Rectangle-57-Copy-12" fill="#000000" sketch:type="MSShapeGroup" x="85" y="177" width="36" height="2" rx="1"></rect>
                <rect id="Rectangle-57-Copy-13" fill="#000000" sketch:type="MSShapeGroup" x="84" y="183" width="37" height="2" rx="1"></rect>
                <rect id="Rectangle-57-Copy-14" fill="#000000" sketch:type="MSShapeGroup" x="84" y="189" width="37" height="2" rx="1"></rect>
                <rect id="Rectangle-57-Copy-15" fill="#000000" sketch:type="MSShapeGroup" x="84" y="195" width="37" height="2" rx="1"></rect>
                <rect id="Rectangle-57-Copy-16" fill="#000000" sketch:type="MSShapeGroup" x="84" y="201" width="37" height="2" rx="1"></rect>
                <ellipse id="Oval-2" stroke="#C2C2C2" stroke-width="13" sketch:type="MSShapeGroup" cx="102.5" cy="109.5" rx="102.5" ry="102.5"></ellipse>
                <path d="M90,1.12090184 C90,1.01741282 97.5,0.499999956 102,0.5 C106.5,0.500000044 115,1.22437495 115,1.22437495 L115,104.5 L90,104.5 C90,104.5 90,2.05223896 90,1.12090184 Z" id="Rectangle-6" fill="#A319C9" sketch:type="MSShapeGroup"></path>
                <rect id="Rectangle-20-Copy-8" fill="#D0D0D0" sketch:type="MSShapeGroup" x="87" y="107.5" width="30" height="9"></rect>
                <rect id="Rectangle-20-Copy-7" fill="#D0D0D0" sketch:type="MSShapeGroup" x="85" y="104" width="34" height="3" rx="1"></rect>
                <rect id="Rectangle-20-Copy-12" fill="#D0D0D0" sketch:type="MSShapeGroup" x="85" y="117" width="34" height="3" rx="1"></rect>
                <path d="M89,131 L89,127 L87,123 L117,123 L114.5,127 L114.5,131 L117,135 L87,135 L89,131 Z" id="Rectangle-20-Copy-16" fill="#D0D0D0" sketch:type="MSShapeGroup"></path>
                <rect id="Rectangle-20-Copy-15" fill="#D0D0D0" sketch:type="MSShapeGroup" x="85" y="120.200012" width="34" height="3" rx="1"></rect>
                <rect id="Rectangle-20-Copy-14" fill="#D0D0D0" sketch:type="MSShapeGroup" x="85" y="133" width="34" height="3" rx="1"></rect>
                <path d="M89.8666667,149.333333 L89.8666667,142.666667 L88,136 L116,136 L113.666667,142.666667 L113.666667,149.333333 L116,156 L88,156 L89.8666667,149.333333 Z" id="Rectangle-20-Copy-19" fill="#D0D0D0" sketch:type="MSShapeGroup"></path>
                <rect id="Rectangle-20-Copy-17" fill="#D0D0D0" sketch:type="MSShapeGroup" x="84" y="156" width="37" height="3" rx="1"></rect>
                <rect id="Rectangle-57-Copy-17" fill="#000000" sketch:type="MSShapeGroup" x="87" y="152" width="30" height="4" rx="1"></rect>
                <rect id="Rectangle-57-Copy-18" fill="#000000" sketch:type="MSShapeGroup" x="87" y="136" width="30" height="4" rx="1"></rect>
                <path d="M116.5,132.75 L87.5,132.75" id="Line" stroke="#757575" stroke-width="0.5" stroke-linecap="square" sketch:type="MSShapeGroup"></path>
                <path d="M117,123.5 L87,123.5" id="Line-Copy" stroke="#757575" stroke-width="0.5" stroke-linecap="square" sketch:type="MSShapeGroup"></path>
            </g>
            <g id="Yoda" sketch:type="MSLayerGroup" transform="translate(635.000000, 671.000000)">
                <ellipse id="Oval-1-Copy-2" fill="url(#radialGradient-1)" sketch:type="MSShapeGroup" cx="102" cy="109" rx="100" ry="100"></ellipse>
                <path d="M125,183 C127.761424,183 128,180.761424 128,178 C128,175.238576 127.761424,173 125,173 C122.238576,173 122.5,175.238576 122.5,178 C122.5,180.761424 122.238576,183 125,183 Z" id="Oval-29" fill="#E63F3F" sketch:type="MSShapeGroup"></path>
                <rect id="Rectangle-46" fill="#CECECE" sketch:type="MSShapeGroup" x="88" y="115" width="30" height="94"></rect>
                <ellipse id="Oval-2" stroke="#C2C2C2" stroke-width="13" sketch:type="MSShapeGroup" cx="102.5" cy="109.5" rx="102.5" ry="102.5"></ellipse>
                <path d="M90,1.12090184 C90,1.01741282 97.5,0.499999956 102,0.5 C106.5,0.500000044 115,1.22437495 115,1.22437495 L115,104.5 L90,104.5 C90,104.5 90,2.05223896 90,1.12090184 Z" id="Rectangle-6" fill="#50C91A" sketch:type="MSShapeGroup"></path>
                <rect id="Rectangle-20-Copy-22" fill="#D0D0D0" sketch:type="MSShapeGroup" x="96" y="114" width="15" height="5"></rect>
                <rect id="Rectangle-20-Copy-21" fill="#262626" sketch:type="MSShapeGroup" x="90" y="110" width="25" height="5"></rect>
                <rect id="Rectangle-20-Copy-20" fill="#262626" sketch:type="MSShapeGroup" x="85" y="107" width="35" height="5" rx="100"></rect>
                <rect id="Rectangle-20-Copy-18" fill="#262626" sketch:type="MSShapeGroup" x="82" y="103" width="40" height="5" rx="4"></rect>
                <path d="M95,140 C97.7614237,140 98,137.761424 98,135 C98,132.238576 97.7614237,130 95,130 C92.2385763,130 92.5,132.238576 92.5,135 C92.5,137.761424 92.2385763,140 95,140 Z" id="Oval-29-Copy" fill="#000000" sketch:type="MSShapeGroup"></path>
                <rect id="Rectangle-90" fill="#000000" sketch:type="MSShapeGroup" x="87" y="154" width="32" height="37"></rect>
                <rect id="Rectangle-90-Copy" fill="#272727" sketch:type="MSShapeGroup" x="86" y="156" width="34" height="33"></rect>
                <path d="M119,156 L126.499564,156 C126.775947,156 127.034714,156.216961 127.078402,156.490015 L128.843063,167.519146 C128.929737,168.060857 128.556283,168.5 128.000193,168.5 L124,168.5 L124,188 L119,188 L119,156 Z" id="Rectangle-90-Copy-2" fill="#272727" sketch:type="MSShapeGroup"></path>
                <path d="M120,156.5 L120,188.5" id="Line" stroke="#000000" stroke-width="0.5" stroke-linecap="square" sketch:type="MSShapeGroup"></path>
                <path d="M77,86.0026741 C77,85.4489125 77.4457384,85 78.009815,85 C78.009815,85 87.8,85 92.8625,85 C97.925,85 104,88.2 104,98.2 C104,108.2 97.25,111.4 92.8625,111.4 C88.475,111.4 78.0038069,111.4 78.0038069,111.4 C77.4494197,111.4 77,110.952856 77,110.397326 L77,86.0026741 Z" id="Rectangle-97" fill="#D8D8D8" sketch:type="MSShapeGroup"></path>
            </g>
        </g>
    </g>
</svg>