<?xml version="1.0" encoding="UTF-8" standalone="no"?>
<svg width="220px" height="220px" viewBox="0 0 220 220" version="1.1" xmlns="http://www.w3.org/2000/svg" xmlns:xlink="http://www.w3.org/1999/xlink" xmlns:sketch="http://www.bohemiancoding.com/sketch/ns">
    <!-- Generator: Sketch 3.5.1 (25234) - http://www.bohemiancoding.com/sketch -->
    <title>Artboard 1</title>
    <desc>Created with Sketch.</desc>
    <defs>
        <radialGradient cx="50%" cy="50%" fx="50%" fy="50%" r="48.5495351%" id="radialGradient-1">
            <stop stop-color="#8E8E8E" offset="0%"></stop>
            <stop stop-color="#4F4F4F" offset="100%"></stop>
        </radialGradient>
    </defs>
    <g id="Page-1" stroke="none" stroke-width="1" fill="none" fill-rule="evenodd" sketch:type="MSPage">
        <g id="Artboard-1" sketch:type="MSArtboardGroup">
            <g id="Mace-Windu" sketch:type="MSLayerGroup" transform="translate(8.000000, 0.000000)">
                <ellipse id="Oval-1-Copy-2" fill="url(#radialGradient-1)" sketch:type="MSShapeGroup" cx="102" cy="109" rx="100" ry="100"></ellipse>
                <path d="M84,183 C86.7614237,183 87,180.761424 87,178 C87,175.238576 86.7614237,173 84,173 C81.2385763,173 81.5,175.238576 81.5,178 C81.5,180.761424 81.2385763,183 84,183 Z" id="Oval-29" fill="#E63F3F" sketch:type="MSShapeGroup"></path>
                <rect id="Rectangle-46" fill="#CECECE" sketch:type="MSShapeGroup" x="85" y="158" width="35" height="50"></rect>
                <rect id="Rectangle-57-Copy-10" fill="#000000" sketch:type="MSShapeGroup" x="84" y="165" width="37" height="2" rx="1"></rect>
                <rect id="Rectangle-57-Copy-11" fill="#000000" sketch:type="MSShapeGroup" x="84" y="171" width="37" height="2" rx="1"></rect>
                <rect id="Rectangle-57-Copy-12" fill="#000000" sketch:type="MSShapeGroup" x="85" y="177" width="36" height="2" rx="1"></rect>
                <rect id="Rectangle-57-Copy-13" fill="#000000" sketch:type="MSShapeGroup" x="84" y="183" width="37" height="2" rx="1"></rect>
                <rect id="Rectangle-57-Copy-14" fill="#000000" sketch:type="MSShapeGroup" x="84" y="189" width="37" height="2" rx="1"></rect>
                <rect id="Rectangle-57-Copy-15" fill="#000000" sketch:type="MSShapeGroup" x="84" y="195" width="37" height="2" rx="1"></rect>
                <rect id="Rectangle-57-Copy-16" fill="#000000" sketch:type="MSShapeGroup" x="84" y="201" width="37" height="2" rx="1"></rect>
                <ellipse id="Oval-2" stroke="#C2C2C2" stroke-width="13" sketch:type="MSShapeGroup" cx="102.5" cy="109.5" rx="102.5" ry="102.5"></ellipse>
                <path d="M90,1.12090184 C90,1.01741282 97.5,0.499999956 102,0.5 C106.5,0.500000044 115,1.22437495 115,1.22437495 L115,104.5 L90,104.5 C90,104.5 90,2.05223896 90,1.12090184 Z" id="Rectangle-6" fill="#A319C9" sketch:type="MSShapeGroup"></path>
                <rect id="Rectangle-20-Copy-8" fill="#D0D0D0" sketch:type="MSShapeGroup" x="87" y="107.5" width="30" height="9"></rect>
                <rect id="Rectangle-20-Copy-7" fill="#D0D0D0" sketch:type="MSShapeGroup" x="85" y="104" width="34" height="3" rx="1"></rect>
                <rect id="Rectangle-20-Copy-12" fill="#D0D0D0" sketch:type="MSShapeGroup" x="85" y="117" width="34" height="3" rx="1"></rect>
                <path d="M89,131 L89,127 L87,123 L117,123 L114.5,127 L114.5,131 L117,135 L87,135 L89,131 Z" id="Rectangle-20-Copy-16" fill="#D0D0D0" sketch:type="MSShapeGroup"></path>
                <rect id="Rectangle-20-Copy-15" fill="#D0D0D0" sketch:type="MSShapeGroup" x="85" y="120.200012" width="34" height="3" rx="1"></rect>
                <rect id="Rectangle-20-Copy-14" fill="#D0D0D0" sketch:type="MSShapeGroup" x="85" y="133" width="34" height="3" rx="1"></rect>
                <path d="M89.8666667,149.333333 L89.8666667,142.666667 L88,136 L116,136 L113.666667,142.666667 L113.666667,149.333333 L116,156 L88,156 L89.8666667,149.333333 Z" id="Rectangle-20-Copy-19" fill="#D0D0D0" sketch:type="MSShapeGroup"></path>
                <rect id="Rectangle-20-Copy-17" fill="#D0D0D0" sketch:type="MSShapeGroup" x="84" y="156" width="37" height="3" rx="1"></rect>
                <rect id="Rectangle-57-Copy-17" fill="#000000" sketch:type="MSShapeGroup" x="87" y="152" width="30" height="4" rx="1"></rect>
                <rect id="Rectangle-57-Copy-18" fill="#000000" sketch:type="MSShapeGroup" x="87" y="136" width="30" height="4" rx="1"></rect>
                <path d="M116.5,132.75 L87.5,132.75" id="Line" stroke="#757575" stroke-width="0.5" stroke-linecap="square" sketch:type="MSShapeGroup"></path>
                <path d="M117,123.5 L87,123.5" id="Line-Copy" stroke="#757575" stroke-width="0.5" stroke-linecap="square" sketch:type="MSShapeGroup"></path>
            </g>
        </g>
    </g>
</svg>