<?xml version="1.0" encoding="UTF-8" standalone="no"?>
<svg width="220px" height="220px" viewBox="0 0 220 220" version="1.1" xmlns="http://www.w3.org/2000/svg" xmlns:xlink="http://www.w3.org/1999/xlink" xmlns:sketch="http://www.bohemiancoding.com/sketch/ns">
    <!-- Generator: Sketch 3.5.1 (25234) - http://www.bohemiancoding.com/sketch -->
    <title>Artboard 1</title>
    <desc>Created with Sketch.</desc>
    <defs>
        <radialGradient cx="50%" cy="50%" fx="50%" fy="50%" r="48.5495351%" id="radialGradient-1">
            <stop stop-color="#8E8E8E" offset="0%"></stop>
            <stop stop-color="#4F4F4F" offset="100%"></stop>
        </radialGradient>
    </defs>
    <g id="Page-1" stroke="none" stroke-width="1" fill="none" fill-rule="evenodd" sketch:type="MSPage">
        <g id="Artboard-1" sketch:type="MSArtboardGroup">
            <g id="Obi-Wan" sketch:type="MSLayerGroup" transform="translate(8.000000, 0.000000)">
                <circle id="Oval-1" fill="url(#radialGradient-1)" sketch:type="MSShapeGroup" cx="102" cy="109" r="100"></circle>
                <rect id="Rectangle-1" fill="#000000" sketch:type="MSShapeGroup" x="87" y="146" width="30" height="54"></rect>
                <rect id="Rectangle-20" fill="#A39B3D" sketch:type="MSShapeGroup" x="96" y="130" width="12" height="16"></rect>
                <rect id="Rectangle-20-Copy-6" fill="#A39B3D" sketch:type="MSShapeGroup" x="93" y="130" width="18" height="8"></rect>
                <rect id="Rectangle-20-Copy-2" fill="#D0D0D0" sketch:type="MSShapeGroup" x="95" y="117" width="15" height="10"></rect>
                <rect id="Rectangle-20-Copy-3" fill="#D0D0D0" sketch:type="MSShapeGroup" x="92" y="109" width="21" height="10"></rect>
                <rect id="Rectangle-20-Copy" fill="#A39B3D" sketch:type="MSShapeGroup" x="90" y="122" width="24" height="8"></rect>
                <rect id="Rectangle-2" fill="#ECECEC" sketch:type="MSShapeGroup" x="84" y="190" width="36" height="19"></rect>
                <circle id="Oval-2" stroke="#C2C2C2" stroke-width="13" sketch:type="MSShapeGroup" cx="102.5" cy="109.5" r="102.5"></circle>
                <path d="M89,1.1000061 C89,0.999999885 96.5,0.499999958 101,0.5 C105.5,0.500000042 114,1.19999695 114,1.19999695 L114,101 L89,101 C89,101 89,2.00000015 89,1.1000061 Z" id="Rectangle-6" fill="#3FC8E6" sketch:type="MSShapeGroup"></path>
                <rect id="Rectangle-20-Copy-4" fill="#D0D0D0" sketch:type="MSShapeGroup" x="87" y="102" width="30" height="12"></rect>
                <rect id="Rectangle-20-Copy-5" fill="#D0D0D0" sketch:type="MSShapeGroup" x="82" y="98" width="40" height="5"></rect>
            </g>
        </g>
    </g>
</svg>