<?xml version="1.0" encoding="UTF-8" standalone="no"?>
<svg width="220px" height="220px" viewBox="0 0 220 220" version="1.1" xmlns="http://www.w3.org/2000/svg" xmlns:xlink="http://www.w3.org/1999/xlink" xmlns:sketch="http://www.bohemiancoding.com/sketch/ns">
    <!-- Generator: Sketch 3.5.1 (25234) - http://www.bohemiancoding.com/sketch -->
    <title>Artboard 1</title>
    <desc>Created with Sketch.</desc>
    <defs>
        <radialGradient cx="50%" cy="50%" fx="50%" fy="50%" r="48.5495351%" id="radialGradient-1">
            <stop stop-color="#8E8E8E" offset="0%"></stop>
            <stop stop-color="#4F4F4F" offset="100%"></stop>
        </radialGradient>
    </defs>
    <g id="Page-1" stroke="none" stroke-width="1" fill="none" fill-rule="evenodd" sketch:type="MSPage">
        <g id="Artboard-1" sketch:type="MSArtboardGroup">
            <g id="Quigon-Jin" sketch:type="MSLayerGroup" transform="translate(8.000000, 1.000000)">
                <ellipse id="Oval-1-Copy-2" fill="url(#radialGradient-1)" sketch:type="MSShapeGroup" cx="102" cy="109" rx="100" ry="100"></ellipse>
                <path d="M84,183 C86.7614237,183 87,180.761424 87,178 C87,175.238576 86.7614237,173 84,173 C81.2385763,173 81.5,175.238576 81.5,178 C81.5,180.761424 81.2385763,183 84,183 Z" id="Oval-29" fill="#E63F3F" sketch:type="MSShapeGroup"></path>
                <rect id="Rectangle-84" fill="#2C2C2C" sketch:type="MSShapeGroup" x="85" y="146" width="35" height="69"></rect>
                <path d="M81.5,124.992687 C81.5,124.444441 81.9216718,123.828165 82.4317489,123.620304 L87.6348315,121.5 L117.837079,121.5 L122.590154,123.598332 C123.092648,123.820167 123.5,124.449169 123.5,124.992687 L123.5,136.507313 C123.5,137.055559 123.214476,137.83811 122.857049,138.261366 L115.477528,147 L89.5224719,147 L82.1429513,138.261366 C81.7878591,137.840875 81.5,137.050831 81.5,136.507313 L81.5,124.992687 Z" id="Rectangle-85" fill="#2D2D2D" sketch:type="MSShapeGroup"></path>
                <path d="M120,206.5 L120,157 C120,154 108.973512,160.960753 104,167.5 C99.026488,174.039248 94.5390045,186.223536 93,192.5 C90.816187,201.406162 88,206.5 88,206.5 L120,206.5 Z" id="Oval-32" fill="#EBDC93" sketch:type="MSShapeGroup"></path>
                <ellipse id="Oval-2" stroke="#C2C2C2" stroke-width="13" sketch:type="MSShapeGroup" cx="102.5" cy="109.5" rx="102.5" ry="102.5"></ellipse>
                <path d="M90,1.12090184 C90,1.01741282 97.5,0.499999956 102,0.5 C106.5,0.500000044 115,1.22437495 115,1.22437495 L115,104.5 L90,104.5 C90,104.5 90,2.05223896 90,1.12090184 Z" id="Rectangle-6" fill="#50C91A" sketch:type="MSShapeGroup"></path>
                <path d="M88,118 L88,105 L118,105 L118,118 L117,122 L89,122 L88,118 Z" id="Rectangle-86" fill="#2D2D2D" sketch:type="MSShapeGroup"></path>
                <path d="M85,107 C85,105.895431 85.8871117,104.946236 86.9902855,104.879377 L101.5,104 L118.002599,104.892032 C119.105733,104.951661 120,105.88773 120,107 L120,107 C120,108.104569 119.107707,108.951768 118.002599,108.892032 L101.5,108 L86.9902855,108.879377 C85.8910812,108.945995 85,108.11227 85,107 L85,107 Z" id="Rectangle-87" fill="#EBDC93" sketch:type="MSShapeGroup"></path>
            </g>
        </g>
    </g>
</svg>