<?xml version="1.0" encoding="UTF-8" standalone="no"?>
<svg width="220px" height="220px" viewBox="0 0 220 220" version="1.1" xmlns="http://www.w3.org/2000/svg" xmlns:xlink="http://www.w3.org/1999/xlink" xmlns:sketch="http://www.bohemiancoding.com/sketch/ns">
    <!-- Generator: Sketch 3.5.1 (25234) - http://www.bohemiancoding.com/sketch -->
    <title>Artboard 1</title>
    <desc>Created with Sketch.</desc>
    <defs>
        <radialGradient cx="50%" cy="50%" fx="50%" fy="50%" r="48.5495351%" id="radialGradient-1">
            <stop stop-color="#8E8E8E" offset="0%"></stop>
            <stop stop-color="#4F4F4F" offset="100%"></stop>
        </radialGradient>
    </defs>
    <g id="Page-1" stroke="none" stroke-width="1" fill="none" fill-rule="evenodd" sketch:type="MSPage">
        <g id="Artboard-1" sketch:type="MSArtboardGroup">
            <g id="Yoda" sketch:type="MSLayerGroup" transform="translate(8.000000, 1.000000)">
                <ellipse id="Oval-1-Copy-2" fill="url(#radialGradient-1)" sketch:type="MSShapeGroup" cx="102" cy="109" rx="100" ry="100"></ellipse>
                <path d="M125,183 C127.761424,183 128,180.761424 128,178 C128,175.238576 127.761424,173 125,173 C122.238576,173 122.5,175.238576 122.5,178 C122.5,180.761424 122.238576,183 125,183 Z" id="Oval-29" fill="#E63F3F" sketch:type="MSShapeGroup"></path>
                <rect id="Rectangle-46" fill="#CECECE" sketch:type="MSShapeGroup" x="88" y="115" width="30" height="94"></rect>
                <ellipse id="Oval-2" stroke="#C2C2C2" stroke-width="13" sketch:type="MSShapeGroup" cx="102.5" cy="109.5" rx="102.5" ry="102.5"></ellipse>
                <path d="M90,1.12090184 C90,1.01741282 97.5,0.499999956 102,0.5 C106.5,0.500000044 115,1.22437495 115,1.22437495 L115,104.5 L90,104.5 C90,104.5 90,2.05223896 90,1.12090184 Z" id="Rectangle-6" fill="#50C91A" sketch:type="MSShapeGroup"></path>
                <rect id="Rectangle-20-Copy-22" fill="#D0D0D0" sketch:type="MSShapeGroup" x="96" y="114" width="15" height="5"></rect>
                <rect id="Rectangle-20-Copy-21" fill="#262626" sketch:type="MSShapeGroup" x="90" y="110" width="25" height="5"></rect>
                <rect id="Rectangle-20-Copy-20" fill="#262626" sketch:type="MSShapeGroup" x="85" y="107" width="35" height="5" rx="100"></rect>
                <rect id="Rectangle-20-Copy-18" fill="#262626" sketch:type="MSShapeGroup" x="82" y="103" width="40" height="5" rx="4"></rect>
                <path d="M95,140 C97.7614237,140 98,137.761424 98,135 C98,132.238576 97.7614237,130 95,130 C92.2385763,130 92.5,132.238576 92.5,135 C92.5,137.761424 92.2385763,140 95,140 Z" id="Oval-29-Copy" fill="#000000" sketch:type="MSShapeGroup"></path>
                <rect id="Rectangle-90" fill="#000000" sketch:type="MSShapeGroup" x="87" y="154" width="32" height="37"></rect>
                <rect id="Rectangle-90-Copy" fill="#272727" sketch:type="MSShapeGroup" x="86" y="156" width="34" height="33"></rect>
                <path d="M119,156 L126.499564,156 C126.775947,156 127.034714,156.216961 127.078402,156.490015 L128.843063,167.519146 C128.929737,168.060857 128.556283,168.5 128.000193,168.5 L124,168.5 L124,188 L119,188 L119,156 Z" id="Rectangle-90-Copy-2" fill="#272727" sketch:type="MSShapeGroup"></path>
                <path d="M120,156.5 L120,188.5" id="Line" stroke="#000000" stroke-width="0.5" stroke-linecap="square" sketch:type="MSShapeGroup"></path>
                <path d="M77,86.0026741 C77,85.4489125 77.4457384,85 78.009815,85 C78.009815,85 87.8,85 92.8625,85 C97.925,85 104,88.2 104,98.2 C104,108.2 97.25,111.4 92.8625,111.4 C88.475,111.4 78.0038069,111.4 78.0038069,111.4 C77.4494197,111.4 77,110.952856 77,110.397326 L77,86.0026741 Z" id="Rectangle-97" fill="#D8D8D8" sketch:type="MSShapeGroup"></path>
            </g>
        </g>
    </g>
</svg>