<?xml version="1.0" encoding="UTF-8" standalone="no"?>
<svg width="131px" height="149px" viewBox="0 0 131 149" version="1.1" xmlns="http://www.w3.org/2000/svg" xmlns:xlink="http://www.w3.org/1999/xlink" xmlns:sketch="http://www.bohemiancoding.com/sketch/ns">
    <!-- Generator: Sketch 3.5.1 (25234) - http://www.bohemiancoding.com/sketch -->
    <title>Artboard 1</title>
    <desc>Created with Sketch.</desc>
    <defs>
        <linearGradient x1="45.3926606%" y1="20.5077801%" x2="78.8603436%" y2="84.9048627%" id="linearGradient-1">
            <stop stop-color="#D6859E" offset="0%"></stop>
            <stop stop-color="#FEFCBE" offset="100%"></stop>
        </linearGradient>
        <linearGradient x1="17.6801215%" y1="92.9304534%" x2="100%" y2="10.8738296%" id="linearGradient-2">
            <stop stop-color="#71A74B" offset="0%"></stop>
            <stop stop-color="#BFF67A" offset="100%"></stop>
        </linearGradient>
        <linearGradient x1="82.3825194%" y1="19.945982%" x2="25.1507442%" y2="50%" id="linearGradient-3">
            <stop stop-color="#ADD682" offset="0%"></stop>
            <stop stop-color="#71A74B" offset="100%"></stop>
        </linearGradient>
        <linearGradient x1="20.0524213%" y1="50%" x2="100%" y2="33.6582272%" id="linearGradient-4">
            <stop stop-color="#A7D37C" offset="0%"></stop>
            <stop stop-color="#B9F176" offset="100%"></stop>
        </linearGradient>
        <linearGradient x1="92.9385439%" y1="17.4213147%" x2="41.2773211%" y2="85.6041819%" id="linearGradient-5">
            <stop stop-color="#A6D470" offset="0%"></stop>
            <stop stop-color="#71A84B" offset="100%"></stop>
        </linearGradient>
        <linearGradient x1="-27.1276557%" y1="67.388587%" x2="139.699019%" y2="59.4602328%" id="linearGradient-6">
            <stop stop-color="#F6F6F6" offset="0%"></stop>
            <stop stop-color="#C2C2C2" offset="100%"></stop>
        </linearGradient>
        <linearGradient x1="0%" y1="50%" x2="100%" y2="56.1967118%" id="linearGradient-7">
            <stop stop-color="#EEEEEE" offset="0%"></stop>
            <stop stop-color="#CDCDCD" offset="100%"></stop>
        </linearGradient>
        <linearGradient x1="50%" y1="39.6674007%" x2="11.0980772%" y2="39.6673993%" id="linearGradient-8">
            <stop stop-color="#EEEEEE" offset="0%"></stop>
            <stop stop-color="#D8D8D8" offset="100%"></stop>
        </linearGradient>
        <linearGradient x1="92.0629335%" y1="43.3902605%" x2="50%" y2="100%" id="linearGradient-9">
            <stop stop-color="#EEEEEE" offset="0%"></stop>
            <stop stop-color="#D8D8D8" offset="100%"></stop>
        </linearGradient>
        <linearGradient x1="0%" y1="50%" x2="94.240306%" y2="62.2334857%" id="linearGradient-10">
            <stop stop-color="#B9B9B9" offset="0%"></stop>
            <stop stop-color="#918B8B" offset="100%"></stop>
        </linearGradient>
        <linearGradient x1="100%" y1="35.7546584%" x2="0%" y2="50%" id="linearGradient-11">
            <stop stop-color="#EEEEEE" offset="0%"></stop>
            <stop stop-color="#D3D3D3" offset="100%"></stop>
        </linearGradient>
        <linearGradient x1="146.689647%" y1="50%" x2="-48.0946282%" y2="50%" id="linearGradient-12">
            <stop stop-color="#FFFFFF" offset="0%"></stop>
            <stop stop-color="#BEBEBE" offset="100%"></stop>
        </linearGradient>
        <linearGradient x1="172.724571%" y1="50%" x2="-45.6454486%" y2="50%" id="linearGradient-13">
            <stop stop-color="#FFFFFF" offset="0%"></stop>
            <stop stop-color="#BEBEBE" offset="100%"></stop>
        </linearGradient>
        <linearGradient x1="133.551499%" y1="62.8615894%" x2="0%" y2="67.1459285%" id="linearGradient-14">
            <stop stop-color="#FFFFFF" offset="0%"></stop>
            <stop stop-color="#BEBEBE" offset="100%"></stop>
        </linearGradient>
        <linearGradient x1="100%" y1="55.9935193%" x2="-35.7820019%" y2="61.5219875%" id="linearGradient-15">
            <stop stop-color="#EEEEEE" offset="0%"></stop>
            <stop stop-color="#BEBEBE" offset="100%"></stop>
        </linearGradient>
        <linearGradient x1="50%" y1="41.4981946%" x2="-18.2937044%" y2="50%" id="linearGradient-16">
            <stop stop-color="#E1E1E1" offset="0%"></stop>
            <stop stop-color="#BEBEBE" offset="100%"></stop>
        </linearGradient>
    </defs>
    <g id="Page-1" stroke="none" stroke-width="1" fill="none" fill-rule="evenodd" sketch:type="MSPage">
        <g id="Artboard-1" sketch:type="MSArtboardGroup">
            <g id="taj" sketch:type="MSLayerGroup" transform="translate(5.500000, 5.000000)">
                <polygon id="Polygon-1" fill="url(#linearGradient-1)" sketch:type="MSShapeGroup" points="60 0 120 34.6410162 120 103.923048 60 138.564065 3.98166392e-14 103.923048 8.03733628e-31 34.6410162 "></polygon>
                <polygon id="Polygon-1-Copy" stroke="#FFFFFF" stroke-width="5" sketch:type="MSShapeGroup" points="60 0 120 34.6410162 120 103.923048 60 138.564065 3.98166392e-14 103.923048 8.03733628e-31 34.6410162 "></polygon>
                <g id="Group-3-Copy" transform="translate(0.000000, 79.000000)" sketch:type="MSShapeGroup">
                    <path d="M51.5,33.5 C39.5996467,33.7051785 16,34 16,34 C16,34 4,27.5 3.5,27 C3,26.5 2.07708858,25.5328555 1.80000305,25 C1.42108547e-14,22.5 -1.38777878e-17,20.5 -1.38777878e-17,20.5 L-1.38777878e-17,2 L120,0 L120,16 L103.71961,31.8015545 C103.322181,32.1872953 102.555899,32.5090739 101.99931,32.5204267 C101.99931,32.5204267 68.2639342,33.2109667 51.5,33.5 Z" id="Rectangle-2" fill="url(#linearGradient-2)"></path>
                    <path d="M41.5,27.5 C46.9018442,27.5 58.7072012,25.966963 74.5,21.5 C75.1296581,21.3219024 75.7957904,21.1253726 76.4903201,20.9138721 C82.8451568,18.9786766 91.5774082,15.7901491 96.5,14 C104.731372,11.0065804 111,9.00000003 111,9.00000003 L111,14 C111,16.7614238 109.074955,20.1268555 106.687669,21.5242916 L53.8123313,52.4757085 C51.4306965,53.8698362 47.6050285,53.8172912 45.2604948,52.3527756 C45.2604948,52.3527756 3,26 3,25.5 C3,25 16.0412789,27.5 41.5,27.5 Z" id="Rectangle-4" fill="url(#linearGradient-3)"></path>
                    <path d="M87.5,17 L112,7 L112,27 L85,27 L87.5,17 Z" id="Rectangle-4" fill="url(#linearGradient-4)"></path>
                    <path d="M50.5,33.5 C55.9018442,33.5 67.7072012,31.966963 83.5,27.5 C89.8909299,25.6923377 100.039411,21.9857972 105.5,20 C113.731372,17.0065804 120,15 120,15 L120,20 C120,22.7614238 118.074955,26.1268555 115.687669,27.5242916 L62.8123313,58.4757085 C60.4306965,59.8698362 56.598667,59.8091004 54.2684433,58.3495651 L12.1999969,32 C12.1999969,32 25.0412789,33.5 50.5,33.5 Z" id="Rectangle-4-Copy" fill="url(#linearGradient-5)"></path>
                </g>
                <path d="M39,60 L44,59.0560093 L44,77 L39,77 L39,60 Z" id="Rectangle-212" fill="url(#linearGradient-6)" sketch:type="MSShapeGroup"></path>
                <path d="M77,60 L82,59.0560093 L82,77 L77,77 L77,60 Z" id="Rectangle-212-Copy-2" fill="url(#linearGradient-7)" sketch:type="MSShapeGroup" transform="translate(79.500000, 68.028005) scale(-1, 1) translate(-79.500000, -68.028005) "></path>
                <path d="M52.1017612,54.0331055 L69.0327186,54.1668742 C69.0327186,54.1668742 69.762684,52.6573018 69.9370632,51.9545501 C70.8311596,48.3513244 67.1819629,42.7491591 64.666746,40.9022691 C62.1515292,39.0553791 60.4999999,35.9324658 60.4999999,35.9324658 C60.4999999,35.9324658 59.2414611,39.1115731 56.1268484,40.9022692 C53.0122356,42.6929654 49.9928896,47.918754 51.1389891,51.9545501 C51.3136986,52.5697599 52.1017612,54.0331055 52.1017612,54.0331055 Z" id="Oval-2" fill="url(#linearGradient-8)" sketch:type="MSShapeGroup"></path>
                <path d="M44.0751178,59.5953766 L52.1150522,59.6588988 C52.1150522,59.6588988 52.4616878,58.9420544 52.5444946,58.6083415 C52.9690705,56.8972925 51.2361914,54.2370152 50.0418007,53.3599901 C48.84741,52.4829651 48.063155,51 48.063155,51 C48.063155,51 47.4655178,52.5096497 45.9864945,53.3599902 C44.5074711,54.2103307 43.0736866,56.6918796 43.6179302,58.6083415 C43.7008937,58.9004837 44.0751178,59.5953766 44.0751178,59.5953766 Z" id="Oval-2-Copy" fill="url(#linearGradient-8)" sketch:type="MSShapeGroup"></path>
                <path d="M68.5751178,59.5953766 L76.6150522,59.6588988 C76.6150522,59.6588988 76.9616878,58.9420544 77.0444946,58.6083415 C77.4690705,56.8972925 75.7361914,54.2370152 74.5418007,53.3599901 C73.34741,52.4829651 72.563155,51 72.563155,51 C72.563155,51 71.9655178,52.5096497 70.4864945,53.3599902 C69.0074711,54.2103307 67.5736866,56.6918796 68.1179302,58.6083415 C68.2008937,58.9004837 68.5751178,59.5953766 68.5751178,59.5953766 Z" id="Oval-2-Copy-2" fill="url(#linearGradient-8)" sketch:type="MSShapeGroup"></path>
                <rect id="Rectangle-216" fill="url(#linearGradient-9)" sketch:type="MSShapeGroup" x="52" y="54" width="17" height="23"></rect>
                <path d="M55,66.0550971 C55,64.2783609 58.0376713,62.6044147 58.1399262,62.5111825 C59.0931964,61.6420259 60.5,59.9526018 60.5,59.9526018 C60.5,59.9526018 62.003274,62.1687022 62.8104706,62.5111827 C63.6176672,62.8536631 66,64.1606582 66,65.7143506 L66,76 L55,76 L55,66.0550971 Z" id="Rectangle-217" fill="url(#linearGradient-10)" sketch:type="MSShapeGroup"></path>
                <path d="M59,72.0133027 C59,71.4271314 60.0021723,70.874872 60.0359077,70.8441133 C60.3504055,70.5573658 60.8145306,70 60.8145306,70 C60.8145306,70 61.3104827,70.731124 61.5767887,70.8441133 C61.8430947,70.9571026 62.6290613,71.3882995 62.6290613,71.9008854 L62.6290613,75.2942719 L59,75.2942719 L59,72.0133027 Z" id="Rectangle-217-Copy" fill="#636363" sketch:type="MSShapeGroup"></path>
                <rect id="Rectangle-214" fill="#D8D8D8" sketch:type="MSShapeGroup" x="44" y="59" width="8" height="18"></rect>
                <g id="Group-6" transform="translate(45.000000, 62.000000)" sketch:type="MSShapeGroup">
                    <path d="M0.5,2.66195595 C0.5,1.8869298 1.74268373,1.15674145 1.78451526,1.11607284 C2.17448943,0.736939967 2.75,0 2.75,0 C2.75,0 3.36497571,0.966680267 3.69519251,1.11607289 C4.02540931,1.26546552 5,1.83558698 5,2.51331967 L5,7 L0.5,7 L0.5,2.66195595 Z" id="Rectangle-217-Copy-2" fill="url(#linearGradient-10)"></path>
                    <path d="M0.5,10.661956 C0.5,9.8869298 1.74268373,9.15674145 1.78451526,9.11607284 C2.17448943,8.73693997 2.75,8 2.75,8 C2.75,8 3.36497571,8.96668027 3.69519251,9.11607289 C4.02540931,9.26546552 5,9.83558698 5,10.5133197 L5,15 L0.5,15 L0.5,10.661956 Z" id="Rectangle-217-Copy-3" fill="url(#linearGradient-10)"></path>
                    <rect id="Rectangle-221" stroke="#5F5F5F" fill="#D8D8D8" x="2" y="12" width="1.5" height="3"></rect>
                    <rect id="Rectangle-221-Copy" stroke="#5F5F5F" fill="#D8D8D8" x="2" y="4" width="1.5" height="3"></rect>
                </g>
                <g id="Group-6-Copy" transform="translate(39.500000, 63.000000)" sketch:type="MSShapeGroup">
                    <path d="M0.35,2.48449222 C0.35,1.76113448 1.21987861,1.07962535 1.24916068,1.04166798 C1.5221426,0.687810635 1.925,0 1.925,0 C1.925,0 2.355483,0.902234916 2.58663476,1.04166803 C2.81778652,1.18110115 3.5,1.71321451 3.5,2.34576502 L3.5,6.53333333 L0.35,6.53333333 L0.35,2.48449222 Z" id="Rectangle-217-Copy-2" fill="url(#linearGradient-10)"></path>
                    <path d="M0.35,9.95115889 C0.35,9.22780115 1.21987861,8.54629202 1.24916068,8.50833465 C1.5221426,8.1544773 1.925,7.46666667 1.925,7.46666667 C1.925,7.46666667 2.355483,8.36890158 2.58663476,8.5083347 C2.81778652,8.64776782 3.5,9.17988118 3.5,9.81243169 L3.5,14 L0.35,14 L0.35,9.95115889 Z" id="Rectangle-217-Copy-3" fill="url(#linearGradient-10)"></path>
                    <rect id="Rectangle-221" stroke="#5F5F5F" fill="#D8D8D8" x="1.4" y="11.2" width="1.05" height="2.8"></rect>
                    <rect id="Rectangle-221-Copy" stroke="#5F5F5F" fill="#D8D8D8" x="1.4" y="3.73333333" width="1.05" height="2.8"></rect>
                </g>
                <g id="Group-6-Copy-2" transform="translate(77.500000, 63.000000)" sketch:type="MSShapeGroup">
                    <path d="M0.35,2.48449222 C0.35,1.76113448 1.21987861,1.07962535 1.24916068,1.04166798 C1.5221426,0.687810635 1.925,0 1.925,0 C1.925,0 2.355483,0.902234916 2.58663476,1.04166803 C2.81778652,1.18110115 3.5,1.71321451 3.5,2.34576502 L3.5,6.53333333 L0.35,6.53333333 L0.35,2.48449222 Z" id="Rectangle-217-Copy-2" fill="url(#linearGradient-10)"></path>
                    <path d="M0.35,9.95115889 C0.35,9.22780115 1.21987861,8.54629202 1.24916068,8.50833465 C1.5221426,8.1544773 1.925,7.46666667 1.925,7.46666667 C1.925,7.46666667 2.355483,8.36890158 2.58663476,8.5083347 C2.81778652,8.64776782 3.5,9.17988118 3.5,9.81243169 L3.5,14 L0.35,14 L0.35,9.95115889 Z" id="Rectangle-217-Copy-3" fill="url(#linearGradient-10)"></path>
                    <rect id="Rectangle-221" stroke="#5F5F5F" fill="#D8D8D8" x="1.4" y="11.2" width="1.05" height="2.8"></rect>
                    <rect id="Rectangle-221-Copy" stroke="#5F5F5F" fill="#D8D8D8" x="1.4" y="3.73333333" width="1.05" height="2.8"></rect>
                </g>
                <rect id="Rectangle-214-Copy" fill="url(#linearGradient-11)" sketch:type="MSShapeGroup" x="69" y="59" width="8" height="18"></rect>
                <g id="Group-7" transform="translate(70.000000, 62.000000)" sketch:type="MSShapeGroup">
                    <path d="M0.5,2.66195595 C0.5,1.8869298 1.74268373,1.15674145 1.78451526,1.11607284 C2.17448943,0.736939967 2.75,0 2.75,0 C2.75,0 3.36497571,0.966680267 3.69519251,1.11607289 C4.02540931,1.26546552 5,1.83558698 5,2.51331967 L5,7 L0.5,7 L0.5,2.66195595 Z" id="Rectangle-217-Copy-5" fill="url(#linearGradient-10)"></path>
                    <path d="M0.5,10.661956 C0.5,9.8869298 1.74268373,9.15674145 1.78451526,9.11607284 C2.17448943,8.73693997 2.75,8 2.75,8 C2.75,8 3.36497571,8.96668027 3.69519251,9.11607289 C4.02540931,9.26546552 5,9.83558698 5,10.5133197 L5,15 L0.5,15 L0.5,10.661956 Z" id="Rectangle-217-Copy-4" fill="url(#linearGradient-10)"></path>
                    <rect id="Rectangle-221-Copy-3" stroke="#5F5F5F" fill="#D8D8D8" x="2" y="12" width="1.5" height="3"></rect>
                    <rect id="Rectangle-221-Copy-2" stroke="#5F5F5F" fill="#D8D8D8" x="2" y="4" width="1.5" height="3"></rect>
                </g>
                <rect id="Rectangle-200" fill="url(#linearGradient-12)" sketch:type="MSShapeGroup" x="29" y="57" width="3" height="20"></rect>
                <rect id="Rectangle-200-Copy" fill="url(#linearGradient-13)" sketch:type="MSShapeGroup" x="89" y="57" width="3" height="20"></rect>
                <path d="M97.5625741,48 L101.239638,48 L102,76 L97,76 L97.5625741,48 Z" id="Rectangle-198" fill="url(#linearGradient-14)" sketch:type="MSShapeGroup"></path>
                <path d="M19.5625741,48 L23.2396383,48 L24,76 L19,76 L19.5625741,48 Z" id="Rectangle-198-Copy" fill="url(#linearGradient-15)" sketch:type="MSShapeGroup"></path>
                <rect id="Rectangle-202" fill="#D8D8D8" sketch:type="MSShapeGroup" x="18.5" y="66" width="6" height="1" rx="98"></rect>
                <rect id="Rectangle-202-Copy" fill="#D8D8D8" sketch:type="MSShapeGroup" x="18.5" y="57" width="6" height="1" rx="98"></rect>
                <rect id="Rectangle-202-Copy-3" fill="#D8D8D8" sketch:type="MSShapeGroup" x="96.5" y="66" width="6" height="1" rx="98"></rect>
                <rect id="Rectangle-202-Copy-2" fill="#D8D8D8" sketch:type="MSShapeGroup" x="96.5" y="57" width="6" height="1" rx="98"></rect>
                <rect id="Rectangle-206" fill="#D8D8D8" sketch:type="MSShapeGroup" x="28.5" y="69" width="4" height="1" rx="100"></rect>
                <rect id="Rectangle-206-Copy" fill="#D8D8D8" sketch:type="MSShapeGroup" x="28.5" y="63" width="4" height="1" rx="100"></rect>
                <rect id="Rectangle-206-Copy-6" fill="#D8D8D8" sketch:type="MSShapeGroup" x="28.5" y="57" width="4" height="1" rx="100"></rect>
                <rect id="Rectangle-206-Copy-4" fill="#D8D8D8" sketch:type="MSShapeGroup" x="19" y="48" width="5" height="1" rx="100"></rect>
                <rect id="Rectangle-206-Copy-5" fill="#D8D8D8" sketch:type="MSShapeGroup" x="97" y="48" width="5" height="1" rx="100"></rect>
                <rect id="Rectangle-206-Copy-3" fill="#D8D8D8" sketch:type="MSShapeGroup" x="88.5" y="69" width="4" height="1" rx="100"></rect>
                <rect id="Rectangle-206-Copy-2" fill="#D8D8D8" sketch:type="MSShapeGroup" x="88.5" y="63" width="4" height="1" rx="100"></rect>
                <rect id="Rectangle-206-Copy-7" fill="#D8D8D8" sketch:type="MSShapeGroup" x="88.5" y="57" width="4" height="1" rx="100"></rect>
                <rect id="Rectangle-194" fill="#C7C7C7" sketch:type="MSShapeGroup" x="17" y="76" width="8" height="5"></rect>
                <rect id="Rectangle-194-Copy-2" fill="#C7C7C7" sketch:type="MSShapeGroup" x="96" y="76" width="8" height="5"></rect>
                <rect id="Rectangle-194-Copy" fill="#F3F3F3" sketch:type="MSShapeGroup" x="25" y="77" width="71" height="4"></rect>
                <rect id="Rectangle-196" fill="#E2E2E2" sketch:type="MSShapeGroup" x="53" y="76" width="15" height="5"></rect>
                <g id="Group-8" transform="translate(97.000000, 41.000000)" sketch:type="MSShapeGroup">
                    <path d="M0.5,2.583193 C0.5,1.72212867 1.63851261,1.0595994 1.63851261,1.0595994 L2.49707222,0 L3,0.78032136 C3,0.78032136 4.5,1.71418384 4.5,2.57127576 L4.5,7 L0.5,7 L0.5,2.583193 Z" id="Rectangle-227" fill="url(#linearGradient-16)"></path>
                    <rect id="Rectangle-228-Copy" fill="#F3A6A9" x="2.20001221" y="3.5" width="0.5" height="3" rx="100"></rect>
                    <rect id="Rectangle-228-Copy-3" fill="#F3A6A9" x="1.20001221" y="3.5" width="0.5" height="3" rx="100"></rect>
                    <rect id="Rectangle-228-Copy-2" fill="#F3A6A9" x="3.20001221" y="3.5" width="0.5" height="3" rx="100"></rect>
                </g>
                <g id="Group-8-Copy" transform="translate(19.000000, 41.000000)" sketch:type="MSShapeGroup">
                    <path d="M0.5,2.583193 C0.5,1.72212867 1.63851261,1.0595994 1.63851261,1.0595994 L2.49707222,0 L3,0.78032136 C3,0.78032136 4.5,1.71418384 4.5,2.57127576 L4.5,7 L0.5,7 L0.5,2.583193 Z" id="Rectangle-227" fill="url(#linearGradient-16)"></path>
                    <rect id="Rectangle-228-Copy" fill="#F3A6A9" x="2.20001221" y="3.5" width="0.5" height="3" rx="100"></rect>
                    <rect id="Rectangle-228-Copy-3" fill="#F3A6A9" x="1.20001221" y="3.5" width="0.5" height="3" rx="100"></rect>
                    <rect id="Rectangle-228-Copy-2" fill="#F3A6A9" x="3.20001221" y="3.5" width="0.5" height="3" rx="100"></rect>
                </g>
                <g id="Group-8-Copy-2" transform="translate(28.750000, 52.000000)" sketch:type="MSShapeGroup">
                    <path d="M0.35,1.84513786 C0.35,1.23009191 1.14695883,0.756856714 1.14695883,0.756856714 L1.74795055,0 L2.1,0.5573724 C2.1,0.5573724 3.15,1.22441703 3.15,1.83662554 L3.15,5 L0.35,5 L0.35,1.84513786 Z" id="Rectangle-227" fill="url(#linearGradient-16)"></path>
                    <rect id="Rectangle-228-Copy" fill="#F3A6A9" x="1.54000854" y="2.5" width="0.5" height="2.14285714" rx="100"></rect>
                    <rect id="Rectangle-228-Copy-3" fill="#F3A6A9" x="0.840008545" y="2.5" width="0.5" height="2.14285714" rx="100"></rect>
                    <rect id="Rectangle-228-Copy-2" fill="#F3A6A9" x="2.24000854" y="2.5" width="0.5" height="2.14285714" rx="100"></rect>
                </g>
                <g id="Group-8-Copy-3" transform="translate(88.750000, 52.000000)" sketch:type="MSShapeGroup">
                    <path d="M0.35,1.84513786 C0.35,1.23009191 1.14695883,0.756856714 1.14695883,0.756856714 L1.74795055,0 L2.1,0.5573724 C2.1,0.5573724 3.15,1.22441703 3.15,1.83662554 L3.15,5 L0.35,5 L0.35,1.84513786 Z" id="Rectangle-227" fill="url(#linearGradient-16)"></path>
                    <rect id="Rectangle-228-Copy" fill="#F3A6A9" x="1.54000854" y="2.5" width="0.5" height="2.14285714" rx="100"></rect>
                    <rect id="Rectangle-228-Copy-3" fill="#F3A6A9" x="0.840008545" y="2.5" width="0.5" height="2.14285714" rx="100"></rect>
                    <rect id="Rectangle-228-Copy-2" fill="#F3A6A9" x="2.24000854" y="2.5" width="0.5" height="2.14285714" rx="100"></rect>
                </g>
            </g>
        </g>
    </g>
</svg>