<?xml version="1.0" encoding="UTF-8" standalone="no"?>
<svg width="224px" height="224px" viewBox="0 0 224 224" version="1.1" xmlns="http://www.w3.org/2000/svg" xmlns:xlink="http://www.w3.org/1999/xlink" xmlns:sketch="http://www.bohemiancoding.com/sketch/ns">
    <!-- Generator: Sketch 3.5.1 (25234) - http://www.bohemiancoding.com/sketch -->
    <title>Artboard 1</title>
    <desc>Created with Sketch.</desc>
    <defs>
        <radialGradient cx="50%" cy="50%" fx="50%" fy="50%" r="42.4562236%" id="radialGradient-1">
            <stop stop-color="#8E8E8E" offset="0%"></stop>
            <stop stop-color="#4F4F4F" offset="100%"></stop>
        </radialGradient>
    </defs>
    <g id="Page-1" stroke="none" stroke-width="1" fill="none" fill-rule="evenodd" sketch:type="MSPage">
        <g id="Artboard-1" sketch:type="MSArtboardGroup">
            <g id="Kylo-Ren" sketch:type="MSLayerGroup" transform="translate(10.000000, 2.000000)">
                <g id="Artboard-1" sketch:type="MSShapeGroup">
                    <g id="Page-1">
                        <g id="Artboard-1">
                            <g id="Kylo-Ren">
                                <polygon id="Polygon-2" fill="url(#radialGradient-1)" points="102.5 12 191.267604 63.25 191.267604 165.75 102.5 217 13.7323961 165.75 13.7323961 63.25 "></polygon>
                                <rect id="Rectangle-46" fill="#373737" x="88.5" y="181" width="28" height="32"></rect>
                                <polygon id="Polygon-1" stroke="#C2C2C2" stroke-width="13" points="102.5 8 191.267604 59.25 191.267604 161.75 102.5 213 13.7323961 161.75 13.7323961 59.25 "></polygon>
                                <path d="M102.5,0.5 L115,7.60000038 L115,106.5 L90,106.5 L90,7.60000038 L102.5,0.5 Z" id="Rectangle-6" fill="#DE2727"></path>
                                <rect id="Rectangle-54" fill="#373737" x="89.5" y="106" width="26" height="10"></rect>
                                <rect id="Rectangle-46-Copy" fill="#282828" x="85.5" y="115" width="34" height="66"></rect>
                                <path d="M84.074994,135.602579 C82.2131102,131.836189 81.5,117.5 81.5,117.5 L85.4100512,116.5 L85.4100511,136.5 C85.4100511,136.5 84.3565561,136.172149 84.074994,135.602579 L84.074994,135.602579 Z" id="Rectangle-48" fill="#282828"></path>
                                <path d="M122.074995,135.602579 C120.213111,131.836189 119.500001,117.5 119.500001,117.5 L123.410052,116.5 L123.410052,136.5 C123.410052,136.5 122.356557,136.172149 122.074995,135.602579 L122.074995,135.602579 Z" id="Rectangle-48-Copy-2" fill="#282828" transform="translate(121.455027, 126.500000) scale(-1, 1) translate(-121.455027, -126.500000) "></path>
                                <path d="M17,126.5 C17,121.5 27.5,119 29,119 L61,119 L61,135 L29,135 C28,135 17,131.5 17,126.5 L17,126.5 Z" id="Rectangle-52" fill="#E63F3F"></path>
                                <path d="M144,126.5 C144,121.5 154.5,119 156,119 L188,119 L188,135 L156,135 C155,135 144,131.5 144,126.5 L144,126.5 Z" id="Rectangle-52-Copy" fill="#E63F3F" transform="translate(166.000000, 127.000000) scale(-1, 1) translate(-166.000000, -127.000000) "></path>
                                <path d="M57,128 C58.2342842,125.796022 59.5,124.5 59.5,124.5 L60.5,118 L82,118 L84.5,136 L54.5,136 C54.5,136 55.3077493,131.021739 57,128 L57,128 Z" id="Rectangle-50" fill="#3A3930"></path>
                                <path d="M123,128 C124.234284,125.796022 125.5,124.5 125.5,124.5 L126.5,118 L148,118 L150.5,136 L120.5,136 C120.5,136 121.307749,131.021739 123,128 L123,128 Z" id="Rectangle-50-Copy" fill="#3A3930" transform="translate(135.500000, 127.000000) scale(-1, 1) translate(-135.500000, -127.000000) "></path>
                            </g>
                        </g>
                    </g>
                </g>
            </g>
        </g>
    </g>
</svg>