<?xml version="1.0" encoding="UTF-8" standalone="no"?>
<svg width="224px" height="224px" viewBox="0 0 224 224" version="1.1" xmlns="http://www.w3.org/2000/svg" xmlns:xlink="http://www.w3.org/1999/xlink" xmlns:sketch="http://www.bohemiancoding.com/sketch/ns">
    <!-- Generator: Sketch 3.5.1 (25234) - http://www.bohemiancoding.com/sketch -->
    <title>Artboard 1</title>
    <desc>Created with Sketch.</desc>
    <defs>
        <radialGradient cx="50%" cy="50%" fx="50%" fy="50%" r="42.4562236%" id="radialGradient-1">
            <stop stop-color="#8E8E8E" offset="0%"></stop>
            <stop stop-color="#4F4F4F" offset="100%"></stop>
        </radialGradient>
    </defs>
    <g id="Page-1" stroke="none" stroke-width="1" fill="none" fill-rule="evenodd" sketch:type="MSPage">
        <g id="Artboard-1" sketch:type="MSArtboardGroup">
            <g id="vader" sketch:type="MSLayerGroup" transform="translate(10.000000, 2.000000)">
                <g id="Artboard-1" sketch:type="MSShapeGroup">
                    <g id="Page-1">
                        <g id="Artboard-1">
                            <g id="Vader">
                                <polygon id="Polygon-2" fill="url(#radialGradient-1)" points="102.5 12 191.267604 63.25 191.267604 165.75 102.5 217 13.7323961 165.75 13.7323961 63.25 "></polygon>
                                <rect id="Rectangle-33" fill="#000000" x="116" y="147" width="5" height="10"></rect>
                                <ellipse id="Oval-15" fill="#000000" cx="121" cy="152" rx="2" ry="5"></ellipse>
                                <path d="M91.5,145 L91.5,130 C91.5,130 84,130 84,137.5 C84,145 91.5,145 91.5,145 L91.5,145 Z" id="Oval-17" fill="#F5F5F5"></path>
                                <rect id="Rectangle-34" fill="#BBBBBB" x="107" y="108" width="20" height="10"></rect>
                                <circle id="Oval-16" fill="#BBBBBB" cx="127" cy="113" r="5"></circle>
                                <rect id="Rectangle-1-Copy" fill="#CBCBCB" x="88" y="112" width="30" height="95"></rect>
                                <rect id="Rectangle-2-Copy-6" fill="#878787" x="85" y="173" width="36" height="32"></rect>
                                <rect id="Rectangle-13-Copy-2" fill="#D0D0D0" x="121" y="187" width="6" height="15"></rect>
                                <ellipse id="Oval-5-Copy-5" fill="#FFFFFF" cx="128" cy="191" rx="1" ry="3"></ellipse>
                                <ellipse id="Oval-5-Copy-4" fill="#FFFFFF" cx="128" cy="201" rx="1" ry="3"></ellipse>
                                <rect id="Rectangle-14-Copy-2" fill="#000000" x="126" y="187" width="2" height="18"></rect>
                                <polygon id="Polygon-1" stroke="#C2C2C2" stroke-width="13" points="102.5 8 191.267604 59.25 191.267604 161.75 102.5 213 13.7323961 161.75 13.7323961 59.25 "></polygon>
                                <path d="M102,-1.42108547e-14 L115,7.5 L115,111 L90,111 L90,7.5 L102,-1.42108547e-14 Z" id="Rectangle-6" fill="#3FB0E6"></path>
                                <path d="M88,92 L118,92 L118,124 L113.125,124 L107.5,108 L88,108 L88,92 L88,92 Z" id="Rectangle-2-Copy-4" fill="#CACACA" transform="translate(103.000000, 108.000000) scale(1, -1) translate(-103.000000, -108.000000) "></path>
                                <path d="M97,125 C99.7614237,125 100,122.761424 100,120 C100,117.238576 99.7614237,115 97,115 C94.2385763,115 92,117.238576 92,120 C92,122.761424 94.2385763,125 97,125 L97,125 Z" id="Oval-18" fill="#A39B3E"></path>
                            </g>
                        </g>
                    </g>
                </g>
            </g>
        </g>
    </g>
</svg>