<?xml version="1.0" encoding="UTF-8" standalone="no"?>
<svg width="224px" height="224px" viewBox="0 0 224 224" version="1.1" xmlns="http://www.w3.org/2000/svg" xmlns:xlink="http://www.w3.org/1999/xlink" xmlns:sketch="http://www.bohemiancoding.com/sketch/ns">
    <!-- Generator: Sketch 3.5.1 (25234) - http://www.bohemiancoding.com/sketch -->
    <title>Artboard 1</title>
    <desc>Created with Sketch.</desc>
    <defs>
        <radialGradient cx="50%" cy="50%" fx="50%" fy="50%" r="42.4562236%" id="radialGradient-1">
            <stop stop-color="#8E8E8E" offset="0%"></stop>
            <stop stop-color="#4F4F4F" offset="100%"></stop>
        </radialGradient>
    </defs>
    <g id="Page-1" stroke="none" stroke-width="1" fill="none" fill-rule="evenodd" sketch:type="MSPage">
        <g id="Artboard-1" sketch:type="MSArtboardGroup">
            <g id="Mace-Windu" sketch:type="MSLayerGroup" transform="translate(10.000000, 2.000000)">
                <g id="Artboard-1" sketch:type="MSShapeGroup">
                    <g id="Page-1">
                        <g id="Artboard-1">
                            <g id="Mace-Windu">
                                <polygon id="Polygon-2" fill="url(#radialGradient-1)" points="102.5 12 191.267604 63.25 191.267604 165.75 102.5 217 13.7323961 165.75 13.7323961 63.25 "></polygon>
                                <path d="M84,184 C86.7614237,184 87,181.761424 87,179 C87,176.238576 86.7614237,174 84,174 C81.2385763,174 81.5,176.238576 81.5,179 C81.5,181.761424 81.2385763,184 84,184 L84,184 Z" id="Oval-29" fill="#E63F3F"></path>
                                <rect id="Rectangle-46" fill="#CECECE" x="85" y="159" width="35" height="50"></rect>
                                <rect id="Rectangle-57-Copy-10" fill="#000000" x="84" y="166" width="37" height="2" rx="1"></rect>
                                <rect id="Rectangle-57-Copy-11" fill="#000000" x="84" y="172" width="37" height="2" rx="1"></rect>
                                <rect id="Rectangle-57-Copy-12" fill="#000000" x="85" y="178" width="36" height="2" rx="1"></rect>
                                <rect id="Rectangle-57-Copy-13" fill="#000000" x="84" y="184" width="37" height="2" rx="1"></rect>
                                <rect id="Rectangle-57-Copy-14" fill="#000000" x="84" y="190" width="37" height="2" rx="1"></rect>
                                <rect id="Rectangle-57-Copy-15" fill="#000000" x="84" y="196" width="37" height="2" rx="1"></rect>
                                <rect id="Rectangle-57-Copy-16" fill="#000000" x="84" y="202" width="37" height="2" rx="1"></rect>
                                <polygon id="Polygon-1" stroke="#C2C2C2" stroke-width="13" points="102.5 8 191.267604 59.25 191.267604 161.75 102.5 213 13.7323961 161.75 13.7323961 59.25 "></polygon>
                                <path d="M102.5,0.5 L115,7.5 L115,105.5 L90,105.5 L90,7.5 L102.5,0.5 Z" id="Rectangle-6" fill="#A319C9"></path>
                                <rect id="Rectangle-20-Copy-8" fill="#D0D0D0" x="87" y="108.5" width="30" height="9"></rect>
                                <rect id="Rectangle-20-Copy-7" fill="#D0D0D0" x="85" y="105" width="34" height="3" rx="1"></rect>
                                <rect id="Rectangle-20-Copy-12" fill="#D0D0D0" x="85" y="118" width="34" height="3" rx="1"></rect>
                                <path d="M89,132 L89,128 L87,124 L117,124 L114.5,128 L114.5,132 L117,136 L87,136 L89,132 L89,132 Z" id="Rectangle-20-Copy-16" fill="#D0D0D0"></path>
                                <rect id="Rectangle-20-Copy-15" fill="#D0D0D0" x="85" y="121.200012" width="34" height="3" rx="1"></rect>
                                <rect id="Rectangle-20-Copy-14" fill="#D0D0D0" x="85" y="134" width="34" height="3" rx="1"></rect>
                                <path d="M89.8666667,150.333333 L89.8666667,143.666667 L88,137 L116,137 L113.666667,143.666667 L113.666667,150.333333 L116,157 L88,157 L89.8666667,150.333333 L89.8666667,150.333333 Z" id="Rectangle-20-Copy-19" fill="#D0D0D0"></path>
                                <rect id="Rectangle-20-Copy-17" fill="#D0D0D0" x="84" y="157" width="37" height="3" rx="1"></rect>
                                <rect id="Rectangle-57-Copy-17" fill="#000000" x="87" y="153" width="30" height="4" rx="1"></rect>
                                <rect id="Rectangle-57-Copy-18" fill="#000000" x="87" y="137" width="30" height="4" rx="1"></rect>
                                <path d="M116.5,133.75 L87.5,133.75" id="Line" stroke="#757575" stroke-width="0.5"></path>
                                <path d="M117,124.5 L87,124.5" id="Line-Copy" stroke="#757575" stroke-width="0.5"></path>
                            </g>
                        </g>
                    </g>
                </g>
            </g>
        </g>
    </g>
</svg>