<?xml version="1.0" encoding="UTF-8" standalone="no"?>
<svg width="224px" height="224px" viewBox="0 0 224 224" version="1.1" xmlns="http://www.w3.org/2000/svg" xmlns:xlink="http://www.w3.org/1999/xlink" xmlns:sketch="http://www.bohemiancoding.com/sketch/ns">
    <!-- Generator: Sketch 3.5.1 (25234) - http://www.bohemiancoding.com/sketch -->
    <title>Artboard 1</title>
    <desc>Created with Sketch.</desc>
    <defs>
        <radialGradient cx="50%" cy="50%" fx="50%" fy="50%" r="42.4562236%" id="radialGradient-1">
            <stop stop-color="#8E8E8E" offset="0%"></stop>
            <stop stop-color="#4F4F4F" offset="100%"></stop>
        </radialGradient>
    </defs>
    <g id="Page-1" stroke="none" stroke-width="1" fill="none" fill-rule="evenodd" sketch:type="MSPage">
        <g id="Artboard-1" sketch:type="MSArtboardGroup">
            <g id="Obi-Wan" sketch:type="MSLayerGroup" transform="translate(10.000000, 2.000000)">
                <g id="Artboard-1" sketch:type="MSShapeGroup">
                    <g id="Page-1">
                        <g id="Artboard-1">
                            <g id="Obi-Wan">
                                <polygon id="Polygon-2" fill="url(#radialGradient-1)" points="102.5 12 191.267604 63.25 191.267604 165.75 102.5 217 13.7323961 165.75 13.7323961 63.25 "></polygon>
                                <rect id="Rectangle-1" fill="#000000" x="87" y="145" width="30" height="54"></rect>
                                <rect id="Rectangle-20" fill="#A39B3D" x="96" y="129" width="12" height="16"></rect>
                                <rect id="Rectangle-20-Copy-6" fill="#A39B3D" x="93" y="129" width="18" height="8"></rect>
                                <rect id="Rectangle-20-Copy-2" fill="#D0D0D0" x="95" y="116" width="15" height="10"></rect>
                                <rect id="Rectangle-20-Copy-3" fill="#D0D0D0" x="92" y="108" width="21" height="10"></rect>
                                <rect id="Rectangle-20-Copy" fill="#A39B3D" x="90" y="121" width="24" height="8"></rect>
                                <rect id="Rectangle-2" fill="#ECECEC" x="84" y="189" width="36" height="19"></rect>
                                <polygon id="Polygon-1" stroke="#C2C2C2" stroke-width="13" points="102.5 8 191.267604 59.25 191.267604 161.75 102.5 213 13.7323961 161.75 13.7323961 59.25 "></polygon>
                                <path d="M102.5,0.5 L115,7.5 L115,100 L90,100 L90,7.5 L102.5,0.5 Z" id="Rectangle-6" fill="#3FC8E6"></path>
                                <rect id="Rectangle-20-Copy-4" fill="#D0D0D0" x="87" y="101" width="30" height="12"></rect>
                                <rect id="Rectangle-20-Copy-5" fill="#D0D0D0" x="82" y="97" width="40" height="5"></rect>
                            </g>
                        </g>
                    </g>
                </g>
            </g>
        </g>
    </g>
</svg>