<?xml version="1.0" encoding="UTF-8" standalone="no"?>
<svg width="224px" height="224px" viewBox="0 0 224 224" version="1.1" xmlns="http://www.w3.org/2000/svg" xmlns:xlink="http://www.w3.org/1999/xlink" xmlns:sketch="http://www.bohemiancoding.com/sketch/ns">
    <!-- Generator: Sketch 3.5.1 (25234) - http://www.bohemiancoding.com/sketch -->
    <title>Artboard 1</title>
    <desc>Created with Sketch.</desc>
    <defs>
        <radialGradient cx="50%" cy="50%" fx="50%" fy="50%" r="42.4562236%" id="radialGradient-1">
            <stop stop-color="#8E8E8E" offset="0%"></stop>
            <stop stop-color="#4F4F4F" offset="100%"></stop>
        </radialGradient>
    </defs>
    <g id="Page-1" stroke="none" stroke-width="1" fill="none" fill-rule="evenodd" sketch:type="MSPage">
        <g id="Artboard-1" sketch:type="MSArtboardGroup">
            <g id="vader" sketch:type="MSLayerGroup" transform="translate(10.000000, 2.000000)">
                <g id="Artboard-1" sketch:type="MSShapeGroup">
                    <g id="Page-1">
                        <g id="Artboard-1">
                            <g id="Vader">
                                <polygon id="Polygon-2" fill="url(#radialGradient-1)" points="102.5 12 191.267604 63.25 191.267604 165.75 102.5 217 13.7323961 165.75 13.7323961 63.25 "></polygon>
                                <rect id="Rectangle-1" opacity="0.64453125" fill="#EBEBEB" x="86" y="101.652778" width="30" height="105.347222"></rect>
                                <rect id="Rectangle-2" fill="#000000" x="83" y="170.935185" width="36" height="36.0648148"></rect>
                                <rect id="Rectangle-13" fill="#D0D0D0" x="77" y="179.476852" width="6" height="18.9814815"></rect>
                                <ellipse id="Oval-5" fill="#FFFFFF" cx="75" cy="184.222222" rx="1" ry="2.84722222"></ellipse>
                                <ellipse id="Oval-5-Copy" fill="#FFFFFF" cx="75" cy="193.712963" rx="1" ry="2.84722222"></ellipse>
                                <rect id="Rectangle-14" fill="#000000" x="75" y="179.476852" width="2" height="14.2361111"></rect>
                                <polygon id="Polygon-1" stroke="#C2C2C2" stroke-width="13" points="102.5 8 191.267604 59.25 191.267604 161.75 102.5 213 13.7323961 161.75 13.7323961 59.25 "></polygon>
                                <path d="M90,7.50000014 L102.5,0.500000022 L115,7.50000014 L115,97.8564815 L90,97.8564815 L90,3.04398727 L90,7.50000014 Z" id="Rectangle-6" fill="#E63F3F"></path>
                                <path d="M83,100.229167 L123,79.8240741 L123,148.157407 L116.5,148.157407 L109.111111,136.293981 L83,136.293981 L83,100.229167 L83,100.229167 Z" id="Rectangle-2-Copy" fill="#000000"></path>
                                <path d="M81,117.787037 L123,117.787037 L123,148.157407 L116.175,148.157407 L108.416667,136.293981 L81,136.293981 L81,117.787037 L81,117.787037 Z" id="Rectangle-2-Copy-2" fill="#000000"></path>
                                <rect id="Rectangle-4" fill="#D8D8D8" x="123" y="131.074074" width="4" height="8.54166667"></rect>
                            </g>
                        </g>
                    </g>
                </g>
            </g>
        </g>
    </g>
</svg>