<?xml version="1.0" encoding="UTF-8" standalone="no"?>
<svg width="577px" height="218px" viewBox="0 0 577 218" version="1.1" xmlns="http://www.w3.org/2000/svg" xmlns:xlink="http://www.w3.org/1999/xlink" xmlns:sketch="http://www.bohemiancoding.com/sketch/ns">
    <!-- Generator: Sketch 3.5.1 (25234) - http://www.bohemiancoding.com/sketch -->
    <title>Artboard 1</title>
    <desc>Created with Sketch.</desc>
    <defs></defs>
    <g id="Page-1" stroke="none" stroke-width="1" fill="none" fill-rule="evenodd" sketch:type="MSPage">
        <g id="Artboard-1" sketch:type="MSArtboardGroup">
            <g id="charizard" sketch:type="MSLayerGroup" transform="translate(280.000000, 8.000000)">
                <g id="wing-copy-3" transform="translate(67.089552, 65.073843) scale(-1, 1) translate(-67.089552, -65.073843) translate(0.000000, 3.361748)" sketch:type="MSShapeGroup">
                    <path d="M82.3610533,109.049424 C81.5500127,109.782804 80.7850399,109.492822 80.6133453,108.400285 C80.6133453,108.400285 79.2333906,91.6986105 65.9813894,87.8410477 C52.7293882,83.9834848 42.5887189,92.1240203 42.5887189,92.1240203 C41.6927842,92.7434971 40.6029683,92.4185235 40.0519446,91.4666456 C40.0519446,91.4666456 38.5722942,86.0150055 29.1031847,86.2591899 C19.6340753,86.5033742 3.36650083,94.2152905 3.36650083,94.2152905 L0.166364499,70.7397637 C0.166364499,70.7397637 3.64912435,64.0476777 5.78385483,63.0853581 C7.9185853,62.1230385 10.8989491,64.1531945 10.8989491,64.1531945 C11.860291,64.6854467 13.466432,64.7750999 14.4831359,64.3547756 L40.1591297,53.7398422 C42.7119181,52.684472 45.8508928,49.8691459 47.1767113,47.4397516 L59.967408,24.0024221 C61.0231239,22.0679565 63.4053723,19.5642629 65.2836076,18.4131472 L65.1276815,18.5087097 C67.0080215,17.3563041 68.5323383,14.6328953 68.5323383,12.4318302 L68.5323383,2.27523412 C68.5323383,1.17311178 69.4236485,0.279665098 70.5423346,0.279665098 L70.450281,0.279665098 C71.5603713,0.279665098 72.6125822,1.16060096 72.8061,2.25411662 C72.8061,2.25411662 75.3433675,17.3107759 76.6336561,17.7446319 C87.0180307,21.2363486 100.094861,29.9668824 100.094861,29.9668824 L105.336123,39.9709897 C105.336123,39.9709897 114.800791,46.3452288 117.947449,51.8289254 C121.610149,58.211933 127.833835,64.4522971 130.195841,74.5568465 C135.752041,98.326004 133.193647,104.727283 133.193647,104.727283 L129.780484,121.909311 C129.565627,122.990912 129.059229,123.027912 128.637806,122.010257 C128.637806,122.010257 120.518873,100.399752 109.20819,97.2535869 C97.8975072,94.1074216 82.3610533,109.049424 82.3610533,109.049424 Z" id="Rectangle-1" fill="#F1A251"></path>
                    <path d="M3.36650083,76.436361 C3.36650083,75.3330906 4.01988712,73.819926 4.81755399,73.0644984 L8.60278757,69.4797062 C9.40418211,68.7207483 10.8864997,67.798196 11.9349952,67.4112456 L47.1748304,54.4058778 C48.2137634,54.0224565 49.4988487,52.931542 50.0461626,51.9674665 L63.7051846,27.907548 C64.2520447,26.9442719 65.3793816,25.5873919 66.2257427,24.8746987 L70.2987881,21.4449192 C71.1439938,20.7331988 72.6446495,20.5147652 73.6597785,20.9610711 L76.0452299,22.0098453 C77.0562479,22.4543437 78.57495,23.3870809 79.4229078,24.0813506 L102.46609,42.9480721 C103.320512,43.6476345 104.500463,44.9636471 105.098729,45.8830799 L125.753206,77.6254901 C126.352751,78.5468878 126.922151,80.1818043 127.025578,81.29358 C127.025578,81.29358 128.781877,99.8092885 129.369818,110.060426 C129.625557,114.519409 129.369818,123.424189 129.369818,123.424189 C129.369818,123.424189 118.985916,97.97095 108.068528,97.0104505 C97.1511398,96.0499509 82.206862,109.658497 82.206862,109.658497 C81.3715349,110.378961 80.63224,110.077268 80.5095497,108.965657 C80.5095497,108.965657 80.0673252,92.2505434 65.4631303,88.5460338 C50.8589355,84.8415241 42.8187099,91.9469283 42.8187099,91.9469283 C41.9240182,92.5867518 40.7666597,92.3196601 40.1426119,91.4121959 C40.1426119,91.4121959 38.170684,86.2555261 29.1448723,86.2555261 C20.1190606,86.2555261 3.36650083,93.9626129 3.36650083,93.9626129 L3.36650083,76.436361 Z" id="Rectangle-2" fill="#318295"></path>
                </g>
                <g id="wing-copy-2" transform="translate(155.820896, 3.361748)" sketch:type="MSShapeGroup">
                    <path d="M82.3610533,109.049424 C81.5500127,109.782804 80.7850399,109.492822 80.6133453,108.400285 C80.6133453,108.400285 79.2333906,91.6986105 65.9813894,87.8410477 C52.7293882,83.9834848 42.5887189,92.1240203 42.5887189,92.1240203 C41.6927842,92.7434971 40.6029683,92.4185235 40.0519446,91.4666456 C40.0519446,91.4666456 38.5722942,86.0150055 29.1031847,86.2591899 C19.6340753,86.5033742 3.36650083,94.2152905 3.36650083,94.2152905 L0.166364499,70.7397637 C0.166364499,70.7397637 3.64912435,64.0476777 5.78385483,63.0853581 C7.9185853,62.1230385 10.8989491,64.1531945 10.8989491,64.1531945 C11.860291,64.6854467 13.466432,64.7750999 14.4831359,64.3547756 L40.1591297,53.7398422 C42.7119181,52.684472 45.8508928,49.8691459 47.1767113,47.4397516 L59.967408,24.0024221 C61.0231239,22.0679565 63.4053723,19.5642629 65.2836076,18.4131472 L65.1276815,18.5087097 C67.0080215,17.3563041 68.5323383,14.6328953 68.5323383,12.4318302 L68.5323383,2.27523412 C68.5323383,1.17311178 69.4236485,0.279665098 70.5423346,0.279665098 L70.450281,0.279665098 C71.5603713,0.279665098 72.6125822,1.16060096 72.8061,2.25411662 C72.8061,2.25411662 75.3433675,17.3107759 76.6336561,17.7446319 C87.0180307,21.2363486 100.094861,29.9668824 100.094861,29.9668824 L105.336123,39.9709897 C105.336123,39.9709897 114.800791,46.3452288 117.947449,51.8289254 C121.610149,58.211933 127.833835,64.4522971 130.195841,74.5568465 C135.752041,98.326004 133.193647,104.727283 133.193647,104.727283 L129.780484,121.909311 C129.565627,122.990912 129.059229,123.027912 128.637806,122.010257 C128.637806,122.010257 120.518873,100.399752 109.20819,97.2535869 C97.8975072,94.1074216 82.3610533,109.049424 82.3610533,109.049424 Z" id="Rectangle-1" fill="#E59849"></path>
                    <path d="M3.36650083,76.436361 C3.36650083,75.3330906 4.01988712,73.819926 4.81755399,73.0644984 L8.60278757,69.4797062 C9.40418211,68.7207483 10.8864997,67.798196 11.9349952,67.4112456 L47.1748304,54.4058778 C48.2137634,54.0224565 49.4988487,52.931542 50.0461626,51.9674665 L63.7051846,27.907548 C64.2520447,26.9442719 65.3793816,25.5873919 66.2257427,24.8746987 L70.2987881,21.4449192 C71.1439938,20.7331988 72.6446495,20.5147652 73.6597785,20.9610711 L76.0452299,22.0098453 C77.0562479,22.4543437 78.57495,23.3870809 79.4229078,24.0813506 L102.46609,42.9480721 C103.320512,43.6476345 104.500463,44.9636471 105.098729,45.8830799 L125.753206,77.6254901 C126.352751,78.5468878 126.922151,80.1818043 127.025578,81.29358 C127.025578,81.29358 128.781877,99.8092885 129.369818,110.060426 C129.625557,114.519409 129.369818,123.424189 129.369818,123.424189 C129.369818,123.424189 118.985916,97.97095 108.068528,97.0104505 C97.1511398,96.0499509 82.206862,109.658497 82.206862,109.658497 C81.3715349,110.378961 80.63224,110.077268 80.5095497,108.965657 C80.5095497,108.965657 80.0673252,92.2505434 65.4631303,88.5460338 C50.8589355,84.8415241 42.8187099,91.9469283 42.8187099,91.9469283 C41.9240182,92.5867518 40.7666597,92.3196601 40.1426119,91.4121959 C40.1426119,91.4121959 38.170684,86.2555261 29.1448723,86.2555261 C20.1190606,86.2555261 3.36650083,93.9626129 3.36650083,93.9626129 L3.36650083,76.436361 Z" id="Rectangle-2" fill="#165C6C"></path>
                </g>
                <g id="body" transform="translate(74.543947, 48.024976)" sketch:type="MSShapeGroup">
                    <path d="M55.0581097,122.555243 C54.0691191,122.056173 52.7188257,122.369381 52.0588067,123.23301 L51.326707,124.190956 C50.6592283,125.064346 50.1181299,126.659871 50.1181299,127.768808 L50.1181299,136.116491 C50.1181299,137.219095 50.3543428,138.973292 50.6349604,140.041983 C50.6349604,140.041983 53.2673826,149.171266 52.1107925,151.412001 C51.7081304,152.192104 40.9045557,151.85309 40.9045557,151.85309 L14.857315,151.85309 C13.7559538,151.85309 12.6841338,150.975776 12.5259678,149.88535 C12.5259678,149.88535 11.9003407,147.959928 12.8631242,145.98498 C13.8259078,144.010032 21.7626697,139.177142 21.7626697,139.177142 C22.6993067,138.589395 22.777166,137.526583 21.9459196,136.811327 L22.7404826,137.495018 C21.9050517,136.776161 21.0834661,135.307727 20.9050489,134.212903 L20.5125133,131.80418 C20.3342621,130.710374 20.1269692,128.93648 20.0561018,127.835937 C20.0561018,127.835937 19.1736821,116.533928 20.189761,112.546022 C21.2058399,108.558115 25.6450025,101.340954 25.6450025,101.340954 C26.2097314,100.390522 27.3999462,99.0964359 28.2949872,98.4565624 L35.4557784,93.3372434 C36.3545956,92.6946703 37.1645494,91.2767118 37.2639061,90.180676 L38.3760162,77.9126326 C38.4758004,76.8118817 38.7825556,75.0553602 39.0618315,73.9868128 L42.0400027,62.5919298 C42.3189838,61.5245103 42.8915876,59.8363259 43.3210947,58.8161676 L45.6730875,53.2297528 C46.1016339,52.2118764 45.6044199,51.6673569 44.5586254,52.0148314 L40.4471054,53.3809203 C39.4030586,53.7278141 37.9049165,54.6182252 37.0911929,55.3787929 L20.0922172,71.267322 C19.2828447,72.0238227 18.0961533,73.3471009 17.4300042,74.2385551 L13.3400147,79.7118611 C12.6790875,80.5963271 11.3078093,81.6131715 10.2665317,81.9868677 L5.92823307,83.5438069 C4.89172244,83.9157923 3.6182603,83.4378548 3.07852518,82.4666758 L1.04717613,78.8115431 C0.509836548,77.8446746 0.193578925,76.1759954 0.341287615,75.080791 L1.50436262,66.4570272 C1.65185074,65.3634583 2.62334417,64.232519 3.70344203,63.9226293 L10.9310956,61.8489511 C11.9981255,61.5428107 13.4765839,60.6516985 14.2407538,59.8508103 L19.8282094,53.9948779 C20.5890533,53.1974756 21.9558858,52.0622054 22.8806934,51.4594561 L32.443547,45.2268039 C33.3685435,44.6239314 34.6314044,43.3911034 35.2494426,42.4946486 L44.2457153,29.4456919 C44.8703721,28.5396367 46.2571142,27.6107405 47.3245189,27.375045 L50.1630306,26.7482682 C51.23875,26.5107367 52.919816,26.6895125 53.9286856,27.1525731 L55.3282939,27.7949786 C56.3322883,28.2558015 57.8001348,28.0221335 58.6084288,27.2715735 L58.1729169,27.6759782 C58.980491,26.9260866 59.6759605,25.427446 59.7267603,24.3184371 L60.7491008,1.99974229 C60.7996907,0.89531512 61.7305858,0 62.8316703,0 L70.1215203,0 L70.1215203,124.864938 L61.632245,124.864938 C60.5292841,124.864938 58.8286746,124.457966 57.8444318,123.961292 L55.0581097,122.555243 Z" id="Rectangle-5-Copy" fill="#F1A251"></path>
                    <path d="M124.79277,122.555243 C123.803779,122.056173 122.453486,122.369381 121.793467,123.23301 L121.061367,124.190956 C120.393888,125.064346 119.85279,126.659871 119.85279,127.768808 L119.85279,136.116491 C119.85279,137.219095 120.089003,138.973292 120.36962,140.041983 C120.36962,140.041983 123.002043,149.171266 121.845452,151.412001 C121.44279,152.192104 110.639216,151.85309 110.639216,151.85309 L84.591975,151.85309 C83.4906139,151.85309 82.4187939,150.975776 82.2606279,149.88535 C82.2606279,149.88535 81.6350007,147.959928 82.5977843,145.98498 C83.5605679,144.010032 91.4973298,139.177142 91.4973298,139.177142 C92.4339667,138.589395 92.5118261,137.526583 91.6805796,136.811327 L92.4751426,137.495018 C91.6397117,136.776161 90.8181262,135.307727 90.6397089,134.212903 L90.2471733,131.80418 C90.0689221,130.710374 89.8616293,128.93648 89.7907619,127.835937 C89.7907619,127.835937 88.9083421,116.533928 89.924421,112.546022 C90.9404999,108.558115 95.3796626,101.340954 95.3796626,101.340954 C95.9443914,100.390522 97.1346062,99.0964359 98.0296472,98.4565624 L105.190438,93.3372434 C106.089256,92.6946703 106.899209,91.2767118 106.998566,90.180676 L108.110676,77.9126326 C108.21046,76.8118817 108.517216,75.0553602 108.796492,73.9868128 L111.774663,62.5919298 C112.053644,61.5245103 112.626248,59.8363259 113.055755,58.8161676 L115.407748,53.2297528 C115.836294,52.2118764 115.33908,51.6673569 114.293285,52.0148314 L110.181765,53.3809203 C109.137719,53.7278141 107.639577,54.6182252 106.825853,55.3787929 L89.8268772,71.267322 C89.0175047,72.0238227 87.8308134,73.3471009 87.1646642,74.2385551 L83.0746747,79.7118611 C82.4137475,80.5963271 81.0424693,81.6131715 80.0011917,81.9868677 L75.6628931,83.5438069 C74.6263825,83.9157923 73.3529203,83.4378548 72.8131852,82.4666758 L70.7818362,78.8115431 C70.2444966,77.8446746 69.928239,76.1759954 70.0759476,75.080791 L71.2390227,66.4570272 C71.3865108,65.3634583 72.3580042,64.232519 73.4381021,63.9226293 L80.6657556,61.8489511 C81.7327855,61.5428107 83.2112439,60.6516985 83.9754139,59.8508103 L89.5628694,53.9948779 C90.3237133,53.1974756 91.6905458,52.0622054 92.6153534,51.4594561 L102.178207,45.2268039 C103.103204,44.6239314 104.366064,43.3911034 104.984103,42.4946486 L113.980375,29.4456919 C114.605032,28.5396367 115.991774,27.6107405 117.059179,27.375045 L119.897691,26.7482682 C120.97341,26.5107367 122.654476,26.6895125 123.663346,27.1525731 L125.062954,27.7949786 C126.066948,28.2558015 127.534795,28.0221335 128.343089,27.2715735 L127.907577,27.6759782 C128.715151,26.9260866 129.410621,25.427446 129.46142,24.3184371 L130.483761,1.99974229 C130.534351,0.89531512 131.465246,0 132.56633,0 L139.85618,0 L139.85618,124.864938 L131.366905,124.864938 C130.263944,124.864938 128.563335,124.457966 127.579092,123.961292 L124.79277,122.555243 Z" id="Rectangle-5-Copy-2" fill="#E59849" transform="translate(104.888182, 75.963196) scale(-1, 1) translate(-104.888182, -75.963196) "></path>
                </g>
                <g id="head-copy" transform="translate(127.927032, 0.000000)" sketch:type="MSShapeGroup">
                    <path d="M25.4184832,57.0339619 C26.520678,57.0339619 26.8862041,57.7525544 26.1827471,58.6069113 C26.1827471,58.6069113 22.7060096,64.1214774 16.1111111,64.1214774 C9.4003159,64.1214774 7.02825589,58.7315984 7.02825589,58.7315984 C6.45837675,57.7940197 6.88942604,57.0339619 7.99209869,57.0339619 L25.4184832,57.0339619 Z" id="Rectangle-6" fill="#B46F28"></path>
                    <path d="M16.1111108,18.7992353 L19.5193174,18.7992358 C20.62253,18.799236 21.8713213,17.9681756 22.2993575,16.964612 L28.7431386,1.85667522 C29.1752998,0.843440282 30.4188416,0.0220510722 31.5168914,0.0220510722 L30.3573519,0.0220510722 C31.4570921,0.0220510722 32.243096,0.910443576 32.1127781,2.0077004 L29.9981377,19.8126583 C29.737182,22.0098663 29.8439789,25.5530671 30.2379907,27.7338995 L31.6362526,35.4731992 C32.0296754,37.6507719 31.4766082,40.9710895 30.3928454,42.9037755 L28.4464191,46.3748586 C27.907769,47.3354392 27.4711067,49.0125162 27.4711067,50.1137047 L27.4711067,54.9752773 C27.4711067,56.0796043 26.8822046,57.6611662 26.1308593,58.4619608 C26.1308593,58.4619608 24.9097232,60.1878543 21.9880471,61.6835602 C19.066371,63.179266 16.1111111,63.1609779 16.1111111,63.1609779 L16.1111108,18.7992353 Z" id="Rectangle-6-Copy-2" fill="#E59849"></path>
                    <path d="M0.240464018,18.7992353 L3.64867064,18.7992358 C4.75188321,18.799236 6.00067453,17.9681756 6.42871077,16.964612 L12.8724918,1.85667522 C13.304653,0.843440282 14.5481948,0.0220510722 15.6462446,0.0220510722 L14.4867051,0.0220510722 C15.5864453,0.0220510722 16.3724492,0.910443576 16.2421314,2.0077004 L14.1274909,19.8126583 C13.8665352,22.0098663 13.9733321,25.5530671 14.3673439,27.7338995 L15.7656058,35.4731992 C16.1590287,37.6507719 15.6059615,40.9710895 14.5221986,42.9037755 L12.5757724,46.3748586 C12.0371222,47.3354392 11.60046,49.0125162 11.60046,50.1137047 L11.60046,54.9752773 C11.60046,56.0796043 11.0115579,57.6611662 10.2602125,58.4619608 C10.2602125,58.4619608 9.03907645,60.1878543 6.11740035,61.6835602 C3.19572426,63.179266 0.240464345,63.1609779 0.240464345,63.1609779 L0.240464018,18.7992353 Z" id="Rectangle-6-Copy-3" fill="#F1A251" transform="translate(8.305985, 31.591517) scale(-1, 1) translate(-8.305985, -31.591517) "></path>
                </g>
                <path d="M144.482502,172.846629 L155.654986,172.846628 C156.759957,172.846628 158.419573,172.375934 159.365544,171.793021 L160.834585,170.887791 C161.778899,170.3059 162.645805,168.93539 162.852377,167.862904 C162.852377,167.862904 162.596932,167.683511 164.204477,163.543753 C165.181985,161.026468 168.440548,157.862466 169.699019,154.007765 C171.634579,148.079137 171.521699,140.609404 172.009907,132.068685 C172.967714,115.312807 164.204477,98.0447455 157.655713,93.3905608 C156.068097,92.2622477 153.267656,90.9394465 150.488374,90.3564029 C147.445613,89.7180861 144.482502,89.8730669 144.482502,89.8730669 L144.482502,172.846629 Z" id="Oval-1-Copy-2" fill="#F7EC9C" sketch:type="MSShapeGroup"></path>
                <path d="M117.069567,172.846629 L128.242051,172.846628 C129.347022,172.846628 131.006638,172.375934 131.952609,171.793021 L133.42165,170.887791 C134.365963,170.3059 135.23287,168.93539 135.439442,167.862904 C135.439442,167.862904 135.183997,167.683511 136.791542,163.543753 C137.76905,161.026468 141.027613,157.862466 142.286084,154.007765 C144.221644,148.079137 144.108764,140.609404 144.596972,132.068685 C145.554779,115.312807 136.791542,98.0447455 130.242778,93.3905608 C128.655162,92.2622477 125.854721,90.9394465 123.075439,90.3564029 C120.032678,89.7180861 117.069567,89.8730669 117.069567,89.8730669 L117.069567,172.846629 Z" id="Oval-1-Copy-3" fill="#FFF4A5" sketch:type="MSShapeGroup" transform="translate(130.869407, 131.351569) scale(-1, 1) translate(-130.869407, -131.351569) "></path>
                <path d="M148,38.6951656 C148,38.141454 148.405779,37.5031776 148.901964,37.271575 L153.584852,35.0857571 C154.082993,34.8532413 154.486816,35.1081032 154.486816,35.6741189 L154.486816,37.6553811 C154.486816,38.2128401 154.040951,38.709756 153.501609,38.7641978 L148,39.3195352 L148,38.6951656 Z" id="Rectangle-21" fill="#FFFFFF" sketch:type="MSShapeGroup" transform="translate(151.243408, 37.112564) rotate(-5.000000) translate(-151.243408, -37.112564) "></path>
                <path d="M134,38.6951656 C134,38.141454 134.405779,37.5031776 134.901964,37.271575 L139.584852,35.0857571 C140.082993,34.8532413 140.486816,35.1081032 140.486816,35.6741189 L140.486816,37.6553811 C140.486816,38.2128401 140.040951,38.709756 139.501609,38.7641978 L134,39.3195352 L134,38.6951656 Z" id="Rectangle-21-Copy" fill="#FFFFFF" sketch:type="MSShapeGroup" transform="translate(137.243408, 37.112564) scale(-1, 1) rotate(-5.000000) translate(-137.243408, -37.112564) "></path>
            </g>
            <g id="charmeleon" sketch:type="MSLayerGroup" transform="translate(156.000000, 54.000000)">
                <g id="body" transform="translate(0.000000, 31.884058)" sketch:type="MSShapeGroup">
                    <path d="M38.3848493,98.9160161 C37.3957412,98.4161813 36.2147607,98.8142713 35.7374531,99.8255192 L35.8840996,99.5148266 C35.4110912,100.516966 35.0276421,102.228785 35.0276421,103.328431 L35.0276421,109.267903 C35.0276421,110.371959 35.2639422,112.131909 35.5403747,113.196855 C35.5403747,113.196855 37.5600931,120.172032 36.6300288,121.752306 C36.5847609,121.871466 34.5363561,121.7523 34.5363561,121.7523 L30.7766391,121.7523 L16.1028891,121.752305 C15.5480629,121.752306 14.960313,121.320317 14.8428046,120.798328 C14.8428046,120.798328 14.3240712,119.807425 15.0982873,118.217038 C15.8725035,116.626652 20.3732266,115.447787 20.3732266,115.447787 C21.4256189,115.122717 22.2787514,113.963029 22.2787514,112.85221 L22.2787514,111.788117 C22.2787514,110.679689 21.9488562,108.949225 21.5421544,107.923635 L20.7466017,105.917469 C20.3397904,104.891602 20.0070844,103.174338 20.0205505,102.065224 C20.0205505,102.065224 19.9133473,97.9879412 20.7304205,94.7765587 C21.5474937,91.5651762 25.1609755,87.2679442 26.1039388,85.4042295 C27.046902,83.5405149 26.2975383,77.3717498 26.2975383,77.3717498 C26.1906162,76.2708581 26.197496,74.4792747 26.3106679,73.3916331 L27.2583581,64.2838324 C27.3725315,63.1865664 27.6772772,61.4325023 27.9395515,60.3638823 L30.3021723,50.7375359 C30.5642117,49.6698733 31.0289369,47.943291 31.3413178,46.877172 L33.4967782,39.5208416 C33.8086429,38.4564841 33.1876201,37.41775 32.0834446,37.3208533 C32.0834446,37.3208533 31.7366146,36.9796806 30.7766374,37.5936519 C29.0734298,38.6829699 26.1001056,42.0721779 26.1001056,42.0721779 C25.3624176,42.8826994 24.2203691,44.2389619 23.5369019,45.1173691 L12.9441461,58.7314137 C12.2662157,59.6027048 11.5230318,61.1899701 11.2886273,62.2565176 L11.0616947,63.2890678 C10.8253072,64.3646378 10.0669462,65.9421907 9.38015982,66.7973013 L8.54633617,67.8354865 C7.85403757,68.6974603 6.50077556,69.8080617 5.51638628,70.3199084 L4.63898327,70.776126 C3.65788676,71.2862605 2.44002794,70.9182852 1.91322906,69.9438897 L0.862850778,68.0010539 C0.338554807,67.031288 0.0293626881,65.3584022 0.172883804,64.2597136 L0.526466839,61.5529505 C0.669704572,60.4564312 1.4524402,58.9755946 2.28854583,58.2331643 L6.36893624,54.6099313 C7.19886787,53.8729833 8.38536895,52.5321577 9.00544951,51.6348107 L11.3726283,48.2091577 C11.9988028,47.302992 12.9974491,45.8303763 13.6191001,44.8960316 L20.772376,34.1446195 C21.3868936,33.2209962 22.5402552,31.8593015 23.3466318,31.1049194 L28.5987482,26.1914546 C29.4059528,25.4362979 30.8871407,24.4599373 31.8951249,24.0159554 L33.8290424,23.1641321 C34.8423764,22.7177938 36.5424574,22.5178482 37.6291286,22.718066 L37.7477418,22.7399204 C38.8331375,22.9399032 40.3683875,22.4926086 41.1781527,21.7396195 L40.2493874,22.6032651 C41.0585553,21.8508314 41.7555515,20.3437414 41.8057171,19.2470292 L42.5927433,2.04118632 C42.6431126,0.940022177 43.5841703,0.0473522599 44.6839213,0.0473522599 L50.1470543,0.0473522599 L50.1470543,100.598625 L43.7129085,100.598625 C42.6092258,100.598625 40.9144199,100.194307 39.9235756,99.6935943 L38.3848493,98.9160161 Z" id="Rectangle-5-Copy" fill="#E7613B"></path>
                    <path d="M88.0473196,98.9160161 C87.0582115,98.4161813 85.8772311,98.8142713 85.3999235,99.8255192 L85.54657,99.5148266 C85.0735616,100.516966 84.6901125,102.228785 84.6901125,103.328431 L84.6901125,109.267903 C84.6901125,110.371959 84.9264125,112.131909 85.2028451,113.196855 C85.2028451,113.196855 87.2225635,120.172032 86.2924991,121.752306 C86.2528716,121.856619 84.690111,121.7523 84.690111,121.7523 L79.7227925,121.7523 L65.7656916,121.752305 C65.2106819,121.752305 64.6227833,121.320317 64.5052749,120.798328 C64.5052749,120.798328 63.9865416,119.807425 64.7607577,118.217038 C65.5349738,116.626652 70.035697,115.447787 70.035697,115.447787 C71.0880893,115.122717 71.9412218,113.963029 71.9412218,112.85221 L71.9412218,111.788117 C71.9412218,110.679689 71.6113265,108.949225 71.2046247,107.923635 L70.4090721,105.917469 C70.0022608,104.891602 69.6695547,103.174338 69.6830209,102.065224 C69.6830209,102.065224 69.5758177,97.9879412 70.3928909,94.7765587 C71.2099641,91.5651762 74.8234459,87.2679442 75.7664091,85.4042295 C76.7093724,83.5405149 75.9600086,77.3717498 75.9600086,77.3717498 C75.8530866,76.2708581 75.8599664,74.4792747 75.9731383,73.3916331 L76.9208285,64.2838324 C77.0350018,63.1865664 77.3397476,61.4325023 77.6020219,60.3638823 L79.9646427,50.7375359 C80.2266821,49.6698733 80.6914072,47.943291 81.0037881,46.877172 L83.1592485,39.5208416 C83.4711133,38.4564841 82.8500904,37.41775 81.745915,37.3208533 C81.745915,37.3208533 81.3990849,36.9796806 80.4391078,37.5936519 C78.7359002,38.6829699 75.762576,42.0721779 75.762576,42.0721779 C75.024888,42.8826994 73.8828395,44.2389619 73.1993723,45.1173691 L62.6066164,58.7314137 C61.9286861,59.6027048 61.1855021,61.1899701 60.9510976,62.2565176 L60.724165,63.2890678 C60.4877776,64.3646378 59.7294166,65.9421907 59.0426302,66.7973013 L58.2088065,67.8354865 C57.5165079,68.6974603 56.1632459,69.8080617 55.1788566,70.3199084 L54.3014536,70.776126 C53.3203571,71.2862605 52.1024983,70.9182852 51.5756994,69.9438897 L50.5253211,68.0010539 C50.0010252,67.031288 49.6918331,65.3584022 49.8353542,64.2597136 L50.1889372,61.5529505 C50.3321749,60.4564312 51.1149106,58.9755946 51.9510162,58.2331643 L56.0314066,54.6099313 C56.8613382,53.8729833 58.0478393,52.5321577 58.6679199,51.6348107 L61.0350987,48.2091577 C61.6612731,47.302992 62.6599195,45.8303763 63.2815704,44.8960316 L70.4348464,34.1446195 C71.049364,33.2209962 72.2027256,31.8593015 73.0091021,31.1049194 L78.2612186,26.1914546 C79.0684231,25.4362979 80.5496111,24.4599373 81.5575952,24.0159554 L83.4915128,23.1641321 C84.5048468,22.7177938 86.2049277,22.5178482 87.291599,22.718066 L87.4102122,22.7399204 C88.4956078,22.9399032 90.0308579,22.4926086 90.840623,21.7396195 L89.9118577,22.6032651 C90.7210257,21.8508314 91.4180219,20.3437414 91.4681875,19.2470292 L92.2552137,2.04118632 C92.3055829,0.940022177 93.2466407,0.0473522599 94.3463916,0.0473522599 L99.8095247,0.0473522599 L99.8095247,100.598625 L93.3753789,100.598625 C92.2716962,100.598625 90.5768903,100.194307 89.5860459,99.6935943 L88.0473196,98.9160161 Z" id="Rectangle-5-Copy-4" fill="#D9552F" transform="translate(74.794849, 60.923009) scale(-1, 1) translate(-74.794849, -60.923009) "></path>
                </g>
                <g id="head-copy" transform="translate(36.231884, 0.000000)" sketch:type="MSShapeGroup">
                    <path d="M5.94351771,42.9992745 L21.5600553,42.6635519 C21.5600553,42.6635519 18.3942501,46.705702 13.7517863,46.705702 C9.10932253,46.8310229 5.94351771,42.9992745 5.94351771,42.9992745 Z" id="Rectangle-14" fill="#BE421E"></path>
                    <path d="M0.0408376661,12.9643796 L0.0408378736,3.65984973e-26 L0.0408378736,3.65984973e-26 C0.638901936,3.65984973e-26 1.41545223,0.853641085 1.78195059,1.89545672 C1.78195059,1.89545672 3.90230798,8.3396756 5.93496472,11.4953766 C7.07762904,13.2693637 8.38028785,14.0897521 8.38028785,14.0897521 C10.0643723,15.5001511 11.7935944,18.3925532 12.2443384,20.5584009 L13.0115124,24.2447102 C13.4614842,26.4068472 12.8553934,29.6626462 11.6587699,31.5151937 L10.7733061,32.8860207 C10.1724305,33.8162638 9.68532448,35.4647346 9.68532448,36.5652573 L9.68532448,39.1060987 C9.68532448,40.2078419 9.04895628,41.7374957 8.22744203,42.4743618 C8.22744203,42.4743618 7.51074363,43.4690735 5.03027914,44.571455 C2.54981465,45.6738365 0.0408379438,45.6603576 0.0408379438,45.6603576 L0.0408376661,12.9643796 Z" id="Rectangle-6-Copy-3" fill="#E7623C" transform="translate(6.814133, 22.830181) scale(-1, 1) translate(-6.814133, -22.830181) "></path>
                    <path d="M13.52657,12.9643796 L13.5265703,3.65984973e-26 L13.5265703,3.65984973e-26 C14.1246343,3.65984973e-26 14.9011846,0.853641085 15.267683,1.89545672 C15.267683,1.89545672 17.3880404,8.3396756 19.4206971,11.4953766 C20.5633614,13.2693637 21.8660202,14.0897521 21.8660202,14.0897521 C23.5501046,15.5001511 25.2793268,18.3925532 25.7300708,20.5584009 L26.4972448,24.2447102 C26.9472166,26.4068472 26.3411258,29.6626462 25.1445023,31.5151937 L24.2590385,32.8860207 C23.6581628,33.8162638 23.1710569,35.4647346 23.1710569,36.5652573 L23.1710569,39.1060987 C23.1710569,40.2078419 22.5346887,41.7374957 21.7131744,42.4743618 C21.7131744,42.4743618 20.996476,43.4690735 18.5160115,44.571455 C16.035547,45.6738365 13.5265703,45.6603576 13.5265703,45.6603576 L13.52657,12.9643796 Z" id="Rectangle-6-Copy-4" fill="#D9552F"></path>
                </g>
                <path d="M50.0203383,132.555427 L43.3257649,132.555426 C42.2249862,132.555426 40.5424617,132.120937 39.5779939,131.590606 L38.3021323,130.889049 C37.3330742,130.356193 36.3569222,129.050918 36.0133671,127.995884 C36.0133671,127.995884 36.5726302,129.423292 35.6569702,127.028214 C35.1001799,125.571826 35.0575118,124.200159 34.3406849,121.970003 C33.2381867,118.539964 34.3406849,113.665912 34.3406849,108.963136 C34.3406848,99.1335724 38.7866703,89.2784098 42.5168566,86.5857071 C43.421165,85.9329158 45.0163008,85.1676023 46.5993842,84.8302794 C48.3325458,84.4609779 50.0203382,84.5506428 50.0203382,84.5506428 L50.0203383,132.555427 Z" id="Oval-1-Copy-3" fill="#FFF4A5" sketch:type="MSShapeGroup"></path>
                <path d="M65.9623673,132.555427 L59.2677938,132.555426 C58.1670152,132.555426 56.4844907,132.120937 55.5200229,131.590606 L54.2441613,130.889049 C53.2751032,130.356193 52.2989512,129.050918 51.9553961,127.995884 C51.9553961,127.995884 52.5146592,129.423292 51.5989992,127.028214 C51.0422089,125.571826 50.9995408,124.200159 50.2827139,121.970003 C49.1802157,118.539964 50.2827139,113.665912 50.2827139,108.963136 C50.2827137,99.1335724 54.7286993,89.2784098 58.4588856,86.5857071 C59.3631939,85.9329158 60.9583298,85.1676023 62.5414132,84.8302794 C64.2745748,84.4609779 65.9623672,84.5506428 65.9623672,84.5506428 L65.9623673,132.555427 Z" id="Oval-1-Copy-4" fill="#F6EB9C" sketch:type="MSShapeGroup" transform="translate(57.877541, 108.548245) scale(-1, 1) translate(-57.877541, -108.548245) "></path>
                <path d="M53.0494589,28.1466293 C53.0494589,27.5925487 53.4588857,26.9583572 53.9671094,26.7286904 L57.1349346,25.2971469 C57.641739,25.0681215 58.0525851,25.3231793 58.0525851,25.8770366 L58.0525851,26.87473 C58.0525851,27.4240197 57.608591,27.9126967 57.0641284,27.9659049 L53.0494589,28.3582427 L53.0494589,28.1466293 Z" id="Rectangle-21-Copy-3" fill="#FFFFFF" sketch:type="MSShapeGroup" transform="translate(55.551022, 26.710271) rotate(-5.000000) translate(-55.551022, -26.710271) "></path>
                <path d="M42.0494589,28.1466293 C42.0494589,27.5925487 42.4588857,26.9583572 42.9671094,26.7286904 L46.1349346,25.2971469 C46.641739,25.0681215 47.0525851,25.3231793 47.0525851,25.8770366 L47.0525851,26.87473 C47.0525851,27.4240197 46.608591,27.9126967 46.0641284,27.9659049 L42.0494589,28.3582427 L42.0494589,28.1466293 Z" id="Rectangle-21-Copy-6" fill="#FFFFFF" sketch:type="MSShapeGroup" transform="translate(44.551022, 26.710271) scale(-1, 1) rotate(-5.000000) translate(-44.551022, -26.710271) "></path>
            </g>
            <g id="charmander" sketch:type="MSLayerGroup" transform="translate(15.000000, 88.000000)">
                <g id="body" transform="translate(0.000000, 17.695652)" sketch:type="MSShapeGroup">
                    <path d="M31.7427108,82.6601222 C30.7440743,82.1932941 29.5267928,82.6139446 29.0258339,83.5957564 L29.4335635,82.7966613 C28.9317103,83.7802259 28.5248779,85.4787262 28.5248779,86.580356 L28.5248779,90.8483099 C28.5248779,91.9544221 28.7784755,93.7139189 29.0704463,94.76842 C29.0704463,94.76842 30.8040838,100.264993 29.9670259,101.580647 C29.9262849,101.679854 28.0827205,101.580643 28.0827205,101.580643 L24.6989751,101.580643 L12.5954495,101.580647 C12.0393038,101.580647 11.4481131,101.164691 11.3292179,100.618871 C11.3292179,100.618871 10.8916641,99.9614406 11.5884586,98.6373671 C12.2852531,97.3132937 16.1239059,96.397903 16.1239059,96.397903 C17.1881422,96.0907768 18.0508763,94.9452082 18.0508763,93.8517312 L18.0508763,93.6041384 C18.0508763,92.5050528 17.6952093,90.7843924 17.2614352,89.772514 L16.7984453,88.6924828 C16.362449,87.6754207 16.0073336,85.9579275 16.0269024,84.8466052 C16.0269024,84.8466052 15.9220126,81.79567 16.6573785,79.1220395 C17.3927444,76.448409 21.644878,72.8707565 22.4935449,71.3191244 C23.3422118,69.7674922 22.6975926,64.9686642 22.6975926,64.9686642 C22.5849002,63.8660178 22.5937945,62.0809018 22.7168105,60.9872591 L23.4953129,54.0661777 C23.6186191,52.9699548 23.9474963,51.2184834 24.2309266,50.1502144 L26.1866249,42.7790489 C26.4695869,41.712545 26.7906709,39.9530418 26.902959,38.8571604 L27.4513274,33.5053295 C27.5639857,32.4058342 26.7736706,31.3548818 25.6759191,31.2904732 C25.6759191,31.2904732 25.5629531,31.0033566 24.6989737,31.5145172 C23.1660869,32.4214269 20.6801141,35.0540082 20.6801141,35.0540082 C19.9112503,35.833242 18.6450706,37.0834096 17.8442372,37.8538254 L11.9887059,43.486949 C11.1913582,44.2540115 10.3382776,45.7458539 10.0804813,46.8309241 L10.0348085,47.0231619 C9.77827282,48.1029259 8.98343572,49.6541939 8.26024202,50.48715 L7.87360437,50.9324694 C7.15007403,51.7658132 5.75665908,52.8294753 4.75657486,53.3105099 L4.38325774,53.4900733 C3.38530021,53.970085 2.12606056,53.5888461 1.56531554,52.6293955 L0.933156314,51.547753 C0.374807332,50.5924021 0.0483100803,48.9247181 0.201170551,47.8422356 L0.428245028,46.2342062 C0.582329435,45.1430564 1.40185749,43.6879368 2.25099503,42.9904445 L5.54073884,40.2882073 C6.39333146,39.587877 7.62127698,38.301563 8.27981617,37.4199849 L10.0604539,35.0362679 C10.7206119,34.1525227 11.8483914,32.7623847 12.5728361,31.9387927 L15.3794924,28.7480179 C16.1068847,27.9210748 17.3755626,26.6630852 18.2032553,25.9467942 L22.5475867,22.18718 C23.3797155,21.46705 24.8870665,20.543951 25.9035438,20.1297835 L27.2482068,19.5818954 C28.2695219,19.1657566 29.9796352,18.9787672 31.0689143,19.1644239 L30.7702691,19.1135228 C31.8590725,19.2990985 33.4227322,18.8637363 34.2616043,18.1421435 L33.0231817,19.2074273 C33.8625895,18.4853737 34.5875302,17.0007765 34.6414533,15.9102704 L35.3171611,2.24517875 C35.3715,1.14626289 36.3074894,0.255415571 37.4126257,0.255415571 L42.1323489,0.255415571 L42.1323489,83.9691902 L36.5370584,83.9691902 C35.435805,83.9691902 33.7403158,83.5939337 32.7348716,83.1239231 L31.7427108,82.6601222 Z" id="Rectangle-5-Copy" fill="#F1A251"></path>
                    <path d="M72.7427108,82.6601222 C71.7440743,82.1932941 70.5267928,82.6139446 70.0258339,83.5957564 L70.4335635,82.7966613 C69.9317103,83.7802259 69.5248779,85.4787262 69.5248779,86.580356 L69.5248779,90.8483099 C69.5248779,91.9544221 69.7784755,93.7139189 70.0704463,94.76842 C70.0704463,94.76842 71.8040838,100.264993 70.9670259,101.580647 C70.9262849,101.679854 69.0827205,101.580643 69.0827205,101.580643 L65.6989751,101.580643 L53.5954495,101.580647 C53.0393038,101.580647 52.4481131,101.164691 52.3292179,100.618871 C52.3292179,100.618871 51.8916641,99.9614406 52.5884586,98.6373671 C53.2852531,97.3132937 57.1239059,96.397903 57.1239059,96.397903 C58.1881422,96.0907768 59.0508763,94.9452082 59.0508763,93.8517312 L59.0508763,93.6041384 C59.0508763,92.5050528 58.6952093,90.7843924 58.2614352,89.772514 L57.7984453,88.6924828 C57.362449,87.6754207 57.0073336,85.9579275 57.0269024,84.8466052 C57.0269024,84.8466052 56.9220126,81.79567 57.6573785,79.1220395 C58.3927444,76.448409 62.644878,72.8707565 63.4935449,71.3191244 C64.3422118,69.7674922 63.6975926,64.9686642 63.6975926,64.9686642 C63.5849002,63.8660178 63.5937945,62.0809018 63.7168105,60.9872591 L64.4953129,54.0661777 C64.6186191,52.9699548 64.9474963,51.2184834 65.2309266,50.1502144 L67.1866249,42.7790489 C67.4695869,41.712545 67.7906709,39.9530418 67.902959,38.8571604 L68.4513274,33.5053295 C68.5639857,32.4058342 67.7736706,31.3548818 66.6759191,31.2904732 C66.6759191,31.2904732 66.5629531,31.0033566 65.6989737,31.5145172 C64.1660869,32.4214269 61.6801141,35.0540082 61.6801141,35.0540082 C60.9112503,35.833242 59.6450706,37.0834096 58.8442372,37.8538254 L52.9887059,43.486949 C52.1913582,44.2540115 51.3382776,45.7458539 51.0804813,46.8309241 L51.0348085,47.0231619 C50.7782728,48.1029259 49.9834357,49.6541939 49.260242,50.48715 L48.8736044,50.9324694 C48.150074,51.7658132 46.7566591,52.8294753 45.7565749,53.3105099 L45.3832577,53.4900733 C44.3853002,53.970085 43.1260606,53.5888461 42.5653155,52.6293955 L41.9331563,51.547753 C41.3748073,50.5924021 41.0483101,48.9247181 41.2011706,47.8422356 L41.428245,46.2342062 C41.5823294,45.1430564 42.4018575,43.6879368 43.250995,42.9904445 L46.5407388,40.2882073 C47.3933315,39.587877 48.621277,38.301563 49.2798162,37.4199849 L51.0604539,35.0362679 C51.7206119,34.1525227 52.8483914,32.7623847 53.5728361,31.9387927 L56.3794924,28.7480179 C57.1068847,27.9210748 58.3755626,26.6630852 59.2032553,25.9467942 L63.5475867,22.18718 C64.3797155,21.46705 65.8870665,20.543951 66.9035438,20.1297835 L68.2482068,19.5818954 C69.2695219,19.1657566 70.9796352,18.9787672 72.0689143,19.1644239 L71.7702691,19.1135228 C72.8590725,19.2990985 74.4227322,18.8637363 75.2616043,18.1421435 L74.0231817,19.2074273 C74.8625895,18.4853737 75.5875302,17.0007765 75.6414533,15.9102704 L76.3171611,2.24517875 C76.3715,1.14626289 77.3074894,0.255415571 78.4126257,0.255415571 L83.1323489,0.255415571 L83.1323489,83.9691902 L77.5370584,83.9691902 C76.435805,83.9691902 74.7403158,83.5939337 73.7348716,83.1239231 L72.7427108,82.6601222 Z" id="Rectangle-5-Copy-3" fill="#E59849" transform="translate(62.147945, 50.940077) scale(-1, 1) translate(-62.147945, -50.940077) "></path>
                </g>
                <g id="head-copy" transform="translate(28.608696, 0.000000)" sketch:type="MSShapeGroup">
                    <path d="M6.34916594,30.699347 L20.4040498,30.3971967 C20.4040498,30.3971967 17.5548251,33.0351318 13.3766077,33.5400085 C9.19839028,33.1479206 6.34916594,30.699347 6.34916594,30.699347 Z" id="Rectangle-14" fill="#B46F28"></path>
                    <path d="M0.137047121,0.376824012 C0.137047121,0.376824012 3.68768756,0.112058459 5.88461058,1.31280074 C8.08153359,2.51354303 8.39377768,3.17274872 8.39377768,3.17274872 C9.96714372,4.70443756 12.0999134,7.52115134 13.1559597,9.4613131 L11.8203849,7.00760322 C12.8770993,8.94899258 13.0753373,12.1884237 12.2629322,14.2436559 L10.3118653,19.1794885 C9.90687742,20.2040316 9.43305375,21.9100728 9.25191201,22.9998958 L8.82624707,25.5608707 C8.6458389,26.6462802 7.90979063,28.2102927 7.14475353,29.001668 C7.14475353,29.001668 6.27488735,30.3452457 3.85610207,31.3373891 C1.4373168,32.3295325 0.137047121,32.0612836 0.137047121,32.0612836 L0.137047121,0.376824012 Z" id="Rectangle-6-Copy-3" fill="#F1A251" transform="translate(6.662047, 16.223176) scale(-1, -1) translate(-6.662047, -16.223176) "></path>
                    <path d="M13.1474324,0.376824012 C13.1474324,0.376824012 16.695352,0.112058459 18.8905915,1.31280074 C21.085831,2.51354303 21.3978358,3.17274872 21.3978358,3.17274872 C22.9699962,4.70443756 25.1011315,7.52115134 26.1563685,9.4613131 L24.8218172,7.00760322 C25.8777219,8.94899258 26.0758079,12.1884237 25.2640254,14.2436559 L23.3144536,19.1794885 C22.9097761,20.2040316 22.4363155,21.9100728 22.2553126,22.9998958 L21.8299738,25.5608707 C21.6497039,26.6462802 20.9142196,28.2102927 20.1497688,29.001668 C20.1497688,29.001668 19.2805692,30.3452457 16.8636374,31.3373891 C14.4467057,32.3295325 13.1474324,32.0612836 13.1474324,32.0612836 L13.1474324,0.376824012 Z" id="Rectangle-6-Copy-5" fill="#E59849" transform="translate(19.667432, 16.223176) scale(1, -1) translate(-19.667432, -16.223176) "></path>
                </g>
                <path d="M42.0183045,100.299884 L36.1926452,100.299884 C35.0917874,100.299884 33.4094658,99.8655417 32.4476994,99.3366957 L31.6444142,98.8949937 C30.6769955,98.3630397 29.695855,97.0598075 29.3475092,96.0149954 C29.3475092,96.0149954 29.9153672,97.4809629 29.0912732,95.3253923 C28.5901619,94.0146431 28.5517606,92.7801433 27.9066164,90.7730023 C26.9143681,87.6859677 27.9066164,83.2993204 27.9066164,79.0668224 C27.9066163,70.2202152 31.9080032,61.3505688 35.265171,58.9271364 C36.0790485,58.3396242 37.5146707,57.650842 38.9394458,57.3472515 C40.4992913,57.0148801 42.0183044,57.0955785 42.0183044,57.0955785 L42.0183045,100.299884 Z" id="Oval-1-Copy-3" fill="#FFF4A5" sketch:type="MSShapeGroup"></path>
                <path d="M56.3661306,100.299884 L50.5404713,100.299884 C49.4396135,100.299884 47.7572918,99.8655417 46.7955255,99.3366957 L45.9922403,98.8949937 C45.0248216,98.3630397 44.0436811,97.0598075 43.6953353,96.0149954 C43.6953353,96.0149954 44.2631933,97.4809629 43.4390992,95.3253923 C42.937988,94.0146431 42.8995867,92.7801433 42.2544425,90.7730023 C41.2621941,87.6859677 42.2544425,83.2993204 42.2544425,79.0668224 C42.2544424,70.2202152 46.2558293,61.3505688 49.6129971,58.9271364 C50.4268746,58.3396242 51.8624968,57.650842 53.2872719,57.3472515 C54.8471173,57.0148801 56.3661305,57.0955785 56.3661305,57.0955785 L56.3661306,100.299884 Z" id="Oval-1-Copy-4" fill="#F6EB9C" sketch:type="MSShapeGroup" transform="translate(49.089787, 78.693420) scale(-1, 1) translate(-49.089787, -78.693420) "></path>
                <path d="M45.015119,15.8086412 C45.015119,15.2549296 45.3341429,14.4934306 45.7317444,14.1038017 L47.3882805,12.4804816 C47.7840618,12.0926363 48.2412753,12.2136294 48.396426,12.7273029 C48.396426,12.7273029 48.8877978,14.2141812 48.8877978,14.8060575 C48.8877978,14.8746019 48.7442033,15.0140504 48.7442033,15.0140504 C48.3911291,15.4360927 47.6752843,15.8692707 47.127278,15.9854037 L45.015119,16.4330108 L45.015119,15.8086412 Z" id="Rectangle-21-Copy-5" fill="#FFFFFF" sketch:type="MSShapeGroup" transform="translate(46.951458, 14.342443) rotate(-5.000000) translate(-46.951458, -14.342443) "></path>
                <path d="M35.015119,15.8086412 C35.015119,15.2549296 35.3341429,14.4934306 35.7317444,14.1038017 L37.3882805,12.4804816 C37.7840618,12.0926363 38.2412753,12.2136294 38.396426,12.7273029 C38.396426,12.7273029 38.8877978,14.2141812 38.8877978,14.8060575 C38.8877978,14.8746019 38.7442033,15.0140504 38.7442033,15.0140504 C38.3911291,15.4360927 37.6752843,15.8692707 37.127278,15.9854037 L35.015119,16.4330108 L35.015119,15.8086412 Z" id="Rectangle-21-Copy-7" fill="#FFFFFF" sketch:type="MSShapeGroup" transform="translate(36.951458, 14.342443) scale(-1, 1) rotate(-5.000000) translate(-36.951458, -14.342443) "></path>
            </g>
        </g>
    </g>
</svg>