<?xml version="1.0" encoding="UTF-8" standalone="no"?>
<svg width="220px" height="220px" viewBox="0 0 220 220" version="1.1" xmlns="http://www.w3.org/2000/svg" xmlns:xlink="http://www.w3.org/1999/xlink" xmlns:sketch="http://www.bohemiancoding.com/sketch/ns">
    <!-- Generator: Sketch 3.5.1 (25234) - http://www.bohemiancoding.com/sketch -->
    <title>Artboard 1</title>
    <desc>Created with Sketch.</desc>
    <defs>
        <radialGradient cx="50%" cy="50%" fx="50%" fy="50%" r="48.5495351%" id="radialGradient-1">
            <stop stop-color="#8E8E8E" offset="0%"></stop>
            <stop stop-color="#4F4F4F" offset="100%"></stop>
        </radialGradient>
    </defs>
    <g id="Page-1" stroke="none" stroke-width="1" fill="none" fill-rule="evenodd" sketch:type="MSPage">
        <g id="Artboard-1" sketch:type="MSArtboardGroup">
            <g id="Luke-Sky" sketch:type="MSLayerGroup" transform="translate(8.000000, 0.000000)">
                <circle id="Oval-1-Copy-2" fill="url(#radialGradient-1)" sketch:type="MSShapeGroup" cx="102" cy="109" r="100"></circle>
                <path d="M84,183 C86.7614237,183 87,180.761424 87,178 C87,175.238576 86.7614237,173 84,173 C81.2385763,173 81.5,175.238576 81.5,178 C81.5,180.761424 81.2385763,183 84,183 Z" id="Oval-29" fill="#E63F3F" sketch:type="MSShapeGroup"></path>
                <rect id="Rectangle-46" fill="#CECECE" sketch:type="MSShapeGroup" x="85" y="146" width="35" height="63"></rect>
                <rect id="Rectangle-57" fill="#000000" sketch:type="MSShapeGroup" x="85" y="192" width="35" height="2"></rect>
                <rect id="Rectangle-57-Copy-2" fill="#000000" sketch:type="MSShapeGroup" x="85" y="197" width="35" height="2"></rect>
                <rect id="Rectangle-57-Copy-3" fill="#000000" sketch:type="MSShapeGroup" x="85" y="187" width="35" height="2"></rect>
                <rect id="Rectangle-57-Copy-4" fill="#000000" sketch:type="MSShapeGroup" x="85" y="177" width="35" height="2"></rect>
                <rect id="Rectangle-57-Copy-5" fill="#000000" sketch:type="MSShapeGroup" x="85" y="167" width="35" height="2"></rect>
                <rect id="Rectangle-57-Copy-6" fill="#000000" sketch:type="MSShapeGroup" x="85" y="146" width="35" height="13"></rect>
                <rect id="Rectangle-57-Copy-7" fill="#000000" sketch:type="MSShapeGroup" x="85" y="162" width="35" height="2"></rect>
                <rect id="Rectangle-57-Copy-8" fill="#000000" sketch:type="MSShapeGroup" x="85" y="172" width="35" height="2"></rect>
                <rect id="Rectangle-57-Copy-9" fill="#000000" sketch:type="MSShapeGroup" x="85" y="182" width="35" height="2"></rect>
                <path d="M95,122 L110,122 L110,128.333333 L120.5,141 L85,141 L95,128.333333 L95,122 Z" id="Rectangle-20-Copy-13" fill="#A39B3D" sketch:type="MSShapeGroup"></path>
                <rect id="Rectangle-20-Copy-11" fill="#A39B3D" sketch:type="MSShapeGroup" x="85" y="141" width="35" height="5"></rect>
                <circle id="Oval-2" stroke="#C2C2C2" stroke-width="13" sketch:type="MSShapeGroup" cx="102.5" cy="109.5" r="102.5"></circle>
                <path d="M90,1.12090184 C90,1.01741282 97.5,0.499999956 102,0.5 C106.5,0.500000044 115,1.22437495 115,1.22437495 L115,104.5 L90,104.5 C90,104.5 90,2.05223896 90,1.12090184 Z" id="Rectangle-6" fill="#50C919" sketch:type="MSShapeGroup"></path>
                <rect id="Rectangle-20-Copy-10" fill="#D0D0D0" sketch:type="MSShapeGroup" x="95" y="119" width="15" height="5"></rect>
                <rect id="Rectangle-20-Copy-9" fill="#D0D0D0" sketch:type="MSShapeGroup" x="92" y="110" width="21" height="10"></rect>
                <rect id="Rectangle-20-Copy-8" fill="#D0D0D0" sketch:type="MSShapeGroup" x="87" y="104" width="30" height="12"></rect>
                <rect id="Rectangle-20-Copy-7" fill="#D0D0D0" sketch:type="MSShapeGroup" x="82" y="104" width="40" height="5"></rect>
            </g>
        </g>
    </g>
</svg>